<svg xmlns="http://www.w3.org/2000/svg" width="300%" height="300%" viewBox="120 0 1034 396" version="1.1"><path d="M 757.451 184.268 C 757.183 184.965, 757.085 196.778, 757.232 210.518 L 757.500 235.500 799.750 235.761 L 842 236.022 842 209.511 L 842 183 799.969 183 C 766.947 183, 757.833 183.272, 757.451 184.268 M 866 209.500 L 866 236 908.500 236 L 951 236 951 209.500 L 951 183 908.500 183 L 866 183 866 209.500 M 796.672 190.363 C 792.798 195.442, 792.611 197.730, 795.453 205.279 C 797.956 211.930, 798.785 218, 797.189 218 C 796.743 218, 795.801 215.750, 795.097 213 C 793.636 207.300, 790.251 204, 785.865 204 C 779.823 204, 776.896 211.253, 780.967 216.139 C 782.852 218.402, 782.935 218.415, 782.967 216.450 C 783.038 212.088, 788.977 210.220, 790.965 213.934 C 792.509 216.819, 792.229 218, 790 218 C 788.667 218, 788 218.667, 788 220 C 788 221.712, 788.667 222, 792.622 222 C 796.618 222, 797.076 222.203, 796 223.500 C 795.315 224.325, 794.098 225, 793.294 225 C 791.159 225, 792.312 227.449, 794.609 227.791 C 795.682 227.951, 796.997 229.047, 797.530 230.226 C 798.952 233.371, 800.809 233.513, 802.146 230.579 C 802.792 229.160, 804.122 228, 805.101 228 C 807.626 228, 808.477 226.115, 806.313 225.316 C 802.591 223.941, 803.004 222.506, 807.268 222 C 812.213 221.413, 813.899 218.370, 809.583 217.822 C 807.232 217.523, 807.139 217.318, 808.299 215 C 810.528 210.546, 817 211.540, 817 216.337 C 817 218.182, 817.174 218.254, 818.478 216.951 C 821.146 214.282, 821.380 209.753, 819.006 206.734 C 814.318 200.775, 805.817 205.041, 804.372 214.077 C 804.027 216.235, 803.352 218, 802.872 218 C 801.318 218, 801.948 211.158, 803.999 205.761 C 805.099 202.867, 805.999 199.174, 805.999 197.554 C 806 194.761, 801.575 187, 799.983 187 C 799.573 187, 798.083 188.513, 796.672 190.363 M 904.750 190.697 C 901.480 195.008, 901.313 198.183, 904 205 C 906.031 210.154, 906.714 218, 905.132 218 C 904.654 218, 904.015 216.150, 903.712 213.888 C 902.548 205.214, 893.656 200.808, 889.073 206.635 C 886.557 209.832, 886.500 211.159, 888.700 215.300 C 890.169 218.067, 890.455 218.229, 890.807 216.500 C 891.799 211.640, 896.724 210.341, 899.443 214.223 C 901.595 217.295, 901.406 218, 898.427 218 C 896.516 218, 895.939 218.451, 896.185 219.750 C 896.427 221.027, 897.665 221.583, 900.759 221.807 C 905.173 222.128, 906.467 223.804, 903 224.710 C 900.388 225.393, 900.407 228, 903.025 228 C 904.281 228, 905.422 228.979, 906.031 230.581 C 907.150 233.524, 909.047 233.372, 910.470 230.226 C 911.003 229.047, 912.318 227.951, 913.391 227.791 C 916.092 227.389, 916.519 225.369, 914.041 224.721 C 910.513 223.798, 911.807 222, 916 222 C 919.333 222, 920 221.667, 920 220 C 920 218.667, 919.333 218, 918 218 C 916.900 218, 916 217.357, 916 216.571 C 916 212.070, 924.198 210.377, 924.820 214.750 C 925.433 219.067, 929 216.313, 929 211.523 C 929 206.820, 926.525 204, 922.398 204 C 917.858 204, 914.430 207.406, 912.916 213.420 C 912.282 215.939, 911.366 218, 910.881 218 C 909.285 218, 909.960 212.953, 912.564 205.407 C 914.153 200.803, 914.869 197.127, 914.448 195.739 C 913.662 193.151, 909.233 186.983, 908.199 187.036 C 907.815 187.056, 906.263 188.704, 904.750 190.697 M 757.667 259.667 C 757.300 260.033, 757 271.958, 757 286.167 L 757 312 799.500 312 L 842 312 842 285.500 L 842 259 800.167 259 C 777.158 259, 758.033 259.300, 757.667 259.667 M 866 285.500 L 866 312 908.500 312 L 951 312 951 285.500 L 951 259 908.500 259 L 866 259 866 285.500 M 796.672 266.363 C 792.798 271.442, 792.611 273.730, 795.453 281.279 C 797.956 287.930, 798.785 294, 797.189 294 C 796.743 294, 795.801 291.750, 795.097 289 C 793.636 283.300, 790.251 280, 785.865 280 C 779.823 280, 776.896 287.253, 780.967 292.139 C 782.852 294.402, 782.935 294.415, 782.967 292.450 C 783.038 288.088, 788.977 286.220, 790.965 289.934 C 792.509 292.819, 792.229 294, 790 294 C 788.667 294, 788 294.667, 788 296 C 788 297.712, 788.667 298, 792.622 298 C 796.618 298, 797.076 298.203, 796 299.500 C 795.315 300.325, 794.098 301, 793.294 301 C 791.159 301, 792.312 303.449, 794.609 303.791 C 795.682 303.951, 796.997 305.047, 797.530 306.226 C 798.952 309.371, 800.809 309.513, 802.146 306.579 C 802.792 305.160, 804.122 304, 805.101 304 C 807.626 304, 808.477 302.115, 806.313 301.316 C 802.591 299.941, 803.004 298.506, 807.268 298 C 812.213 297.413, 813.899 294.370, 809.583 293.822 C 807.232 293.523, 807.139 293.318, 808.299 291 C 810.528 286.546, 817 287.540, 817 292.337 C 817 294.182, 817.174 294.254, 818.478 292.951 C 821.146 290.282, 821.380 285.753, 819.006 282.734 C 814.318 276.775, 805.817 281.041, 804.372 290.077 C 804.027 292.235, 803.352 294, 802.872 294 C 801.318 294, 801.948 287.158, 803.999 281.761 C 806.723 274.596, 806.546 271.041, 803.250 266.697 C 801.737 264.704, 800.216 263.056, 799.869 263.036 C 799.521 263.016, 798.083 264.513, 796.672 266.363 M 904.750 266.697 C 901.451 271.046, 901.234 275.094, 903.978 281.141 C 905.976 285.544, 906.735 294, 905.132 294 C 904.654 294, 904.015 292.150, 903.712 289.888 C 902.548 281.214, 893.656 276.808, 889.073 282.635 C 886.576 285.808, 886.506 287.143, 888.616 291.225 L 890.233 294.351 891.568 291.176 C 893.201 287.292, 897.063 286.825, 899.443 290.223 C 901.595 293.295, 901.406 294, 898.427 294 C 896.516 294, 895.939 294.451, 896.185 295.750 C 896.427 297.027, 897.665 297.583, 900.759 297.807 C 905.173 298.128, 906.467 299.804, 903 300.710 C 900.388 301.393, 900.407 304, 903.025 304 C 904.281 304, 905.422 304.979, 906.031 306.581 C 907.150 309.524, 909.047 309.372, 910.470 306.226 C 911.003 305.047, 912.318 303.951, 913.391 303.791 C 916.092 303.389, 916.519 301.369, 914.041 300.721 C 910.513 299.798, 911.807 298, 916 298 C 919.333 298, 920 297.667, 920 296 C 920 294.667, 919.333 294, 918 294 C 916.900 294, 916 293.357, 916 292.571 C 916 288.070, 924.198 286.377, 924.820 290.750 C 925.433 295.067, 929 292.313, 929 287.523 C 929 282.820, 926.525 280, 922.398 280 C 917.858 280, 914.430 283.406, 912.916 289.420 C 912.282 291.939, 911.366 294, 910.881 294 C 909.285 294, 909.960 288.953, 912.564 281.407 C 914.153 276.803, 914.869 273.127, 914.448 271.739 C 913.662 269.151, 909.233 262.983, 908.199 263.036 C 907.815 263.056, 906.263 264.704, 904.750 266.697" stroke="none" fill="#325ea8" fill-rule="evenodd"/><path d="M 796.672 190.363 C 792.798 195.442, 792.611 197.730, 795.453 205.279 C 797.956 211.930, 798.785 218, 797.189 218 C 796.743 218, 795.801 215.750, 795.097 213 C 793.636 207.300, 790.251 204, 785.865 204 C 779.823 204, 776.896 211.253, 780.967 216.139 C 782.852 218.402, 782.935 218.415, 782.967 216.450 C 783.038 212.088, 788.977 210.220, 790.965 213.934 C 792.509 216.819, 792.229 218, 790 218 C 788.667 218, 788 218.667, 788 220 C 788 221.712, 788.667 222, 792.622 222 C 796.618 222, 797.076 222.203, 796 223.500 C 795.315 224.325, 794.098 225, 793.294 225 C 791.159 225, 792.312 227.449, 794.609 227.791 C 795.682 227.951, 796.997 229.047, 797.530 230.226 C 798.952 233.371, 800.809 233.513, 802.146 230.579 C 802.792 229.160, 804.122 228, 805.101 228 C 807.626 228, 808.477 226.115, 806.313 225.316 C 802.591 223.941, 803.004 222.506, 807.268 222 C 812.213 221.413, 813.899 218.370, 809.583 217.822 C 807.232 217.523, 807.139 217.318, 808.299 215 C 810.528 210.546, 817 211.540, 817 216.337 C 817 218.182, 817.174 218.254, 818.478 216.951 C 821.146 214.282, 821.380 209.753, 819.006 206.734 C 814.318 200.775, 805.817 205.041, 804.372 214.077 C 804.027 216.235, 803.352 218, 802.872 218 C 801.318 218, 801.948 211.158, 803.999 205.761 C 805.099 202.867, 805.999 199.174, 805.999 197.554 C 806 194.761, 801.575 187, 799.983 187 C 799.573 187, 798.083 188.513, 796.672 190.363 M 904.750 190.697 C 901.480 195.008, 901.313 198.183, 904 205 C 906.031 210.154, 906.714 218, 905.132 218 C 904.654 218, 904.015 216.150, 903.712 213.888 C 902.548 205.214, 893.656 200.808, 889.073 206.635 C 886.557 209.832, 886.500 211.159, 888.700 215.300 C 890.169 218.067, 890.455 218.229, 890.807 216.500 C 891.799 211.640, 896.724 210.341, 899.443 214.223 C 901.595 217.295, 901.406 218, 898.427 218 C 896.516 218, 895.939 218.451, 896.185 219.750 C 896.427 221.027, 897.665 221.583, 900.759 221.807 C 905.173 222.128, 906.467 223.804, 903 224.710 C 900.388 225.393, 900.407 228, 903.025 228 C 904.281 228, 905.422 228.979, 906.031 230.581 C 907.150 233.524, 909.047 233.372, 910.470 230.226 C 911.003 229.047, 912.318 227.951, 913.391 227.791 C 916.092 227.389, 916.519 225.369, 914.041 224.721 C 910.513 223.798, 911.807 222, 916 222 C 919.333 222, 920 221.667, 920 220 C 920 218.667, 919.333 218, 918 218 C 916.900 218, 916 217.357, 916 216.571 C 916 212.070, 924.198 210.377, 924.820 214.750 C 925.433 219.067, 929 216.313, 929 211.523 C 929 206.820, 926.525 204, 922.398 204 C 917.858 204, 914.430 207.406, 912.916 213.420 C 912.282 215.939, 911.366 218, 910.881 218 C 909.285 218, 909.960 212.953, 912.564 205.407 C 914.153 200.803, 914.869 197.127, 914.448 195.739 C 913.662 193.151, 909.233 186.983, 908.199 187.036 C 907.815 187.056, 906.263 188.704, 904.750 190.697 M 796.672 266.363 C 792.798 271.442, 792.611 273.730, 795.453 281.279 C 797.956 287.930, 798.785 294, 797.189 294 C 796.743 294, 795.801 291.750, 795.097 289 C 793.636 283.300, 790.251 280, 785.865 280 C 779.823 280, 776.896 287.253, 780.967 292.139 C 782.852 294.402, 782.935 294.415, 782.967 292.450 C 783.038 288.088, 788.977 286.220, 790.965 289.934 C 792.509 292.819, 792.229 294, 790 294 C 788.667 294, 788 294.667, 788 296 C 788 297.712, 788.667 298, 792.622 298 C 796.618 298, 797.076 298.203, 796 299.500 C 795.315 300.325, 794.098 301, 793.294 301 C 791.159 301, 792.312 303.449, 794.609 303.791 C 795.682 303.951, 796.997 305.047, 797.530 306.226 C 798.952 309.371, 800.809 309.513, 802.146 306.579 C 802.792 305.160, 804.122 304, 805.101 304 C 807.626 304, 808.477 302.115, 806.313 301.316 C 802.591 299.941, 803.004 298.506, 807.268 298 C 812.213 297.413, 813.899 294.370, 809.583 293.822 C 807.232 293.523, 807.139 293.318, 808.299 291 C 810.528 286.546, 817 287.540, 817 292.337 C 817 294.182, 817.174 294.254, 818.478 292.951 C 821.146 290.282, 821.380 285.753, 819.006 282.734 C 814.318 276.775, 805.817 281.041, 804.372 290.077 C 804.027 292.235, 803.352 294, 802.872 294 C 801.318 294, 801.948 287.158, 803.999 281.761 C 806.723 274.596, 806.546 271.041, 803.250 266.697 C 801.737 264.704, 800.216 263.056, 799.869 263.036 C 799.521 263.016, 798.083 264.513, 796.672 266.363 M 904.750 266.697 C 901.451 271.046, 901.234 275.094, 903.978 281.141 C 905.976 285.544, 906.735 294, 905.132 294 C 904.654 294, 904.015 292.150, 903.712 289.888 C 902.548 281.214, 893.656 276.808, 889.073 282.635 C 886.576 285.808, 886.506 287.143, 888.616 291.225 L 890.233 294.351 891.568 291.176 C 893.201 287.292, 897.063 286.825, 899.443 290.223 C 901.595 293.295, 901.406 294, 898.427 294 C 896.516 294, 895.939 294.451, 896.185 295.750 C 896.427 297.027, 897.665 297.583, 900.759 297.807 C 905.173 298.128, 906.467 299.804, 903 300.710 C 900.388 301.393, 900.407 304, 903.025 304 C 904.281 304, 905.422 304.979, 906.031 306.581 C 907.150 309.524, 909.047 309.372, 910.470 306.226 C 911.003 305.047, 912.318 303.951, 913.391 303.791 C 916.092 303.389, 916.519 301.369, 914.041 300.721 C 910.513 299.798, 911.807 298, 916 298 C 919.333 298, 920 297.667, 920 296 C 920 294.667, 919.333 294, 918 294 C 916.900 294, 916 293.357, 916 292.571 C 916 288.070, 924.198 286.377, 924.820 290.750 C 925.433 295.067, 929 292.313, 929 287.523 C 929 282.820, 926.525 280, 922.398 280 C 917.858 280, 914.430 283.406, 912.916 289.420 C 912.282 291.939, 911.366 294, 910.881 294 C 909.285 294, 909.960 288.953, 912.564 281.407 C 914.153 276.803, 914.869 273.127, 914.448 271.739 C 913.662 269.151, 909.233 262.983, 908.199 263.036 C 907.815 263.056, 906.263 264.704, 904.750 266.697" stroke="none" fill="#f0f3f7" fill-rule="evenodd"/><path d="M 89 84.777 C 89 85.205, 87.200 93.855, 85 104 C 82.800 114.145, 81 123.268, 81 124.273 C 81 125.864, 81.738 126.061, 86.722 125.800 L 92.445 125.500 93.292 121 C 93.757 118.525, 94.575 114.813, 95.108 112.750 L 96.077 109 103.914 109 L 111.750 109 112.375 105.875 C 113.558 99.962, 113.603 100, 105.383 100 C 97.973 100, 97.783 99.939, 98.370 97.750 C 98.701 96.513, 98.979 94.713, 98.986 93.750 C 98.998 92.224, 100.071 92, 107.383 92 C 115.232 92, 115.805 91.856, 116.370 89.750 C 117.942 83.883, 118.214 84, 103 84 C 95.300 84, 89 84.350, 89 84.777 M 220.988 90.250 C 219.319 98.362, 219.302 98.383, 216.295 96.018 C 212.682 93.176, 205.364 93.290, 200.898 96.258 C 191.963 102.196, 190.310 118.901, 198.117 124.369 C 201.147 126.492, 209.306 126.501, 212.535 124.385 C 214.804 122.898, 215 122.898, 215 124.385 C 215 125.652, 216.056 126, 219.900 126 L 224.799 126 226.383 118.750 C 227.254 114.763, 229.273 105.313, 230.869 97.750 L 233.770 84 228.022 84 L 222.273 84 220.988 90.250 M 125.500 95.417 C 121.773 97.081, 117.469 101.596, 116.064 105.315 C 113.465 112.192, 115.799 120.688, 121.190 123.974 C 126.016 126.917, 136.208 126.781, 142.040 123.697 C 152.893 117.958, 154.097 100.796, 144 95.752 C 139.795 93.651, 129.860 93.471, 125.500 95.417 M 158.540 95.250 C 158.321 95.938, 156.953 102.350, 155.500 109.500 C 154.048 116.650, 152.635 123.287, 152.362 124.250 C 151.929 125.776, 152.625 126, 157.803 126 L 163.740 126 164.876 120.250 C 167.445 107.253, 169.685 103, 173.965 103 C 178.283 103, 178.406 107.898, 174.472 123.304 L 173.756 126.107 179.628 125.804 L 185.500 125.500 187.152 119 C 190.121 107.318, 189.359 98.562, 185.087 95.282 C 182.872 93.581, 174.778 93.701, 172.441 95.468 C 169.943 97.358, 169 97.366, 169 95.500 C 169 93.562, 159.151 93.327, 158.540 95.250 M 242 94.704 C 238.239 96.072, 235 100.389, 235 104.032 C 235 108.148, 236.349 109.685, 242.815 112.937 C 245.189 114.131, 246.954 115.646, 246.738 116.304 C 246.218 117.887, 239.565 118.393, 235.931 117.126 C 233.140 116.153, 233.009 116.253, 231.957 120.161 C 231.358 122.383, 231.123 124.456, 231.433 124.766 C 232.711 126.044, 248.052 126.221, 251.019 124.992 C 257.206 122.429, 259.939 115.213, 256.552 110.378 C 255.756 109.242, 253.056 107.529, 250.552 106.573 C 242.865 103.637, 245.813 99.795, 254.052 102.014 C 256.334 102.629, 258.315 102.989, 258.452 102.816 C 258.590 102.642, 259.203 101.020, 259.813 99.211 C 260.846 96.150, 260.748 95.855, 258.397 94.961 C 255.735 93.949, 244.556 93.774, 242 94.704 M 129.570 103.922 C 127.354 106.371, 126.430 113.066, 127.923 115.856 C 129.591 118.973, 134.291 118.717, 136.927 115.365 C 139.255 112.406, 139.774 105.174, 137.800 103.200 C 135.975 101.375, 131.522 101.766, 129.570 103.922 M 209.350 103.257 C 203.662 105.795, 203.734 118, 209.437 118 C 211.981 118, 215.934 113.869, 216.554 110.562 C 217.645 104.751, 214.087 101.143, 209.350 103.257 M 109.945 149.922 L 108.708 156.844 105.768 154.672 C 101.878 151.798, 94.100 151.795, 90.225 154.666 C 81.008 161.493, 79.380 175.935, 87.095 182.426 C 90.670 185.435, 96.423 185.867, 101.050 183.474 C 102.882 182.527, 104 182.357, 104 183.027 C 104 183.698, 105.964 183.990, 109.205 183.802 L 114.410 183.500 118.124 166 C 120.166 156.375, 122.087 147.262, 122.393 145.750 L 122.950 143 117.066 143 L 111.182 143 109.945 149.922 M 274.654 145.250 C 273.226 150.967, 267 181.337, 267 182.591 C 267 183.630, 268.425 184, 272.433 184 C 276.759 184, 277.962 183.644, 278.341 182.250 C 278.602 181.287, 279.597 177.173, 280.551 173.107 C 282.510 164.756, 284.802 161.727, 288.811 162.189 C 292.378 162.601, 292.669 165.478, 290.199 175.908 L 288.282 184 294.074 184 C 300.459 184, 299.890 184.633, 302.036 175.152 C 304.041 166.293, 303.814 159.577, 301.398 156.336 C 298.422 152.343, 294.021 151.296, 288.812 153.342 C 286.520 154.242, 284.534 154.867, 284.398 154.731 C 284.262 154.595, 284.751 151.900, 285.485 148.742 L 286.820 143 281.018 143 C 275.835 143, 275.157 143.240, 274.654 145.250 M 406 143.383 C 406 143.594, 404.200 152.197, 402 162.500 C 399.800 172.803, 398 181.856, 398 182.617 C 398 183.626, 399.478 184, 403.461 184 L 408.923 184 409.867 180.250 C 410.386 178.188, 411.336 174.187, 411.979 171.360 C 413.420 165.019, 416.205 161.772, 419.843 162.193 C 423.374 162.601, 423.662 165.508, 421.199 175.908 L 419.282 184 425.102 184 L 430.923 184 431.921 180.250 C 432.471 178.188, 433.447 173.282, 434.090 169.350 C 435.141 162.926, 435.069 161.808, 433.380 158.350 C 430.256 151.954, 425.355 150.790, 416.860 154.427 C 415.367 155.067, 415.334 154.589, 416.487 149.065 L 417.752 143 411.876 143 C 408.644 143, 406 143.173, 406 143.383 M 134.193 153.350 C 125.807 156.389, 120.642 166.244, 122.948 174.807 C 124.115 179.139, 128.488 183.583, 132.603 184.615 C 135.980 185.463, 147.797 184.619, 148.876 183.453 C 149.361 182.929, 150.069 180.752, 150.449 178.616 C 151.072 175.119, 150.960 174.808, 149.320 175.497 C 148.319 175.917, 145.123 176.484, 142.218 176.757 C 138.070 177.146, 136.514 176.871, 134.968 175.471 C 133.886 174.492, 133 173.310, 133 172.845 C 133 172.380, 137.950 172, 144 172 L 155 172 155 166.404 C 155 159.730, 152.914 155.662, 148.393 153.516 C 144.640 151.735, 138.838 151.668, 134.193 153.350 M 194.774 153.981 C 191.901 155.521, 191.204 155.633, 191.646 154.481 C 192.106 153.281, 191.149 153, 186.607 153 C 183.523 153, 181 153.155, 181 153.344 C 181 153.533, 179.650 160.353, 178 168.500 C 176.350 176.647, 175 183.467, 175 183.656 C 175 183.845, 177.605 184, 180.788 184 L 186.576 184 188.298 175.750 C 190.531 165.054, 192.414 162.471, 197.900 162.588 C 201.970 162.674, 202.055 162.604, 203.383 158.088 C 204.585 154.002, 204.555 153.426, 203.116 152.820 C 200.389 151.673, 198.620 151.920, 194.774 153.981 M 214.655 153.405 C 204.708 157.091, 200.025 168.682, 204.752 177.915 C 207.540 183.363, 212.042 185.211, 221.342 184.728 C 229.937 184.281, 230.959 183.597, 230.985 178.275 C 230.999 175.224, 230.861 175.102, 228.435 176.025 C 224.860 177.384, 216.644 177.244, 215.200 175.800 C 212.107 172.707, 213.830 172, 224.455 172 L 234.909 172 235.604 168.297 C 236.506 163.491, 234.327 157.293, 230.824 154.701 C 227.411 152.175, 219.652 151.553, 214.655 153.405 M 251.764 152.996 C 247.144 154.387, 242.596 157.700, 240.529 161.181 C 237.918 165.577, 237.826 174.559, 240.351 178.413 C 243.204 182.767, 250.172 185.373, 256.861 184.587 C 259.906 184.229, 262.482 183.838, 262.585 183.718 C 262.687 183.598, 263.090 181.576, 263.478 179.223 L 264.185 174.947 260.108 175.599 C 253.064 176.725, 248.532 171.957, 250.995 166.012 C 252.449 162.502, 256.467 160.739, 262.029 161.171 C 266.104 161.488, 266.311 161.363, 267.545 157.847 L 268.828 154.194 264.471 153.097 C 259.491 151.843, 255.693 151.813, 251.764 152.996 M 319.914 152.903 C 312.078 155.438, 307.717 161.473, 307.602 169.940 C 307.513 176.445, 309.307 179.966, 314.304 183.099 C 316.930 184.744, 318.874 185.047, 325.205 184.795 C 329.443 184.627, 333.326 184.042, 333.834 183.495 C 334.342 182.948, 335.069 180.752, 335.449 178.616 C 336.072 175.117, 335.960 174.809, 334.320 175.505 C 333.319 175.930, 329.993 176.489, 326.929 176.746 C 322.600 177.110, 320.983 176.840, 319.679 175.536 C 318.755 174.613, 318 173.455, 318 172.962 C 318 172.470, 322.837 171.940, 328.750 171.784 L 339.500 171.500 339.799 165.789 C 340.075 160.501, 339.846 159.803, 336.714 156.384 C 333.727 153.126, 332.694 152.655, 327.915 152.379 C 324.937 152.207, 321.336 152.443, 319.914 152.903 M 361.630 153.934 C 358.736 155.409, 357.967 155.528, 358.387 154.434 C 358.823 153.296, 357.807 153, 353.469 153 C 350.461 153, 348 153.227, 348 153.505 C 348 153.783, 346.650 160.379, 345 168.163 C 343.350 175.947, 342 182.695, 342 183.158 C 342 183.621, 344.597 184, 347.772 184 L 353.544 184 355.245 175.775 C 357.443 165.145, 359.397 162.471, 364.881 162.586 C 368.777 162.668, 369.050 162.481, 369.993 159.086 C 371.343 154.224, 371.263 153.315, 369.418 152.607 C 366.931 151.653, 365.689 151.864, 361.630 153.934 M 382.764 152.996 C 378.164 154.381, 373.598 157.695, 371.589 161.108 C 368.774 165.890, 368.866 174.599, 371.776 178.685 C 374.945 183.136, 381.409 185.429, 388.346 184.563 C 393.401 183.931, 393.815 183.674, 394.387 180.817 C 395.511 175.195, 395.366 174.988, 390.738 175.622 C 385.156 176.387, 381.667 173.839, 381.667 168.998 C 381.667 163.846, 385.870 160.749, 392.285 161.171 C 397.229 161.497, 397.288 161.465, 398.552 157.847 L 399.828 154.194 395.471 153.097 C 390.491 151.843, 386.693 151.813, 382.764 152.996 M 450.193 153.350 C 441.807 156.389, 436.642 166.244, 438.948 174.807 C 440.115 179.139, 444.488 183.583, 448.603 184.615 C 451.980 185.463, 463.797 184.619, 464.876 183.453 C 465.361 182.929, 466.069 180.752, 466.449 178.616 C 467.072 175.119, 466.960 174.808, 465.320 175.497 C 464.319 175.917, 461.123 176.484, 458.218 176.757 C 454.070 177.146, 452.514 176.871, 450.968 175.471 C 449.886 174.492, 449 173.310, 449 172.845 C 449 172.380, 453.950 172, 460 172 L 471 172 471 166.404 C 471 159.730, 468.914 155.662, 464.393 153.516 C 460.640 151.735, 454.838 151.668, 450.193 153.350 M 137 161 C 133.850 164.150, 134.593 165, 140.500 165 C 143.525 165, 146 164.550, 146 164 C 146 162.466, 142.187 159, 140.500 159 C 139.675 159, 138.100 159.900, 137 161 M 218.762 160.073 C 217.807 160.630, 216.553 161.966, 215.977 163.043 C 214.996 164.876, 215.280 165, 220.465 165 C 226.378 165, 227.549 163.692, 224.429 160.571 C 222.623 158.766, 221.218 158.642, 218.762 160.073 M 322 161 C 318.902 164.098, 319.578 165, 325 165 C 329.303 165, 330 164.726, 330 163.035 C 330 161.165, 327.352 159, 325.066 159 C 324.480 159, 323.100 159.900, 322 161 M 453 161 C 449.850 164.150, 450.593 165, 456.500 165 C 459.525 165, 462 164.550, 462 164 C 462 162.466, 458.187 159, 456.500 159 C 455.675 159, 454.100 159.900, 453 161 M 97.025 162.975 C 92.390 167.610, 93.364 175.288, 98.652 175.805 C 101.054 176.040, 102.254 175.493, 103.884 173.420 C 109.381 166.432, 103.113 156.887, 97.025 162.975 M 526.500 207 C 525.400 207.473, 521.688 207.891, 518.250 207.930 C 511.960 208, 510.780 208.743, 513.445 210.954 C 516.526 213.511, 517.068 222.156, 516.782 264.210 C 516.513 303.894, 516.411 305.891, 514.540 307.957 C 511.779 311.007, 513.117 311.558, 526.868 313.040 C 545.786 315.077, 558.615 312.005, 568.243 303.130 C 581.959 290.487, 583.339 264.785, 571.099 249.936 C 564.978 242.510, 552.429 238.401, 543.500 240.899 C 540.031 241.869, 539.012 242.880, 535.828 248.509 C 533.808 252.079, 532.458 254.993, 532.828 254.985 C 533.197 254.977, 535.525 254.261, 538 253.394 C 550.385 249.052, 561.527 256.767, 563.797 271.256 C 565.862 284.436, 561.034 295.809, 551.541 300.120 C 547.440 301.983, 539.031 302.556, 533.125 301.375 L 530 300.750 530 253.375 C 530 227.319, 529.663 206.032, 529.250 206.070 C 528.837 206.109, 527.600 206.527, 526.500 207 M 290.782 209.553 C 273.053 213.851, 259.624 226.594, 253.424 245 C 250.698 253.093, 250.853 269.213, 253.747 278.542 C 257.835 291.722, 267.268 303.087, 279 308.968 C 287.121 313.038, 293.931 314.338, 304.092 313.759 C 311.927 313.312, 313.118 313.473, 314.671 315.189 C 317.516 318.333, 329.108 326.564, 334.500 329.269 C 345.880 334.978, 356.718 336.411, 365.715 333.397 C 370.538 331.782, 377 327.593, 377 326.083 C 377 325.634, 373.894 325.489, 370.099 325.761 C 357.810 326.640, 346.410 321.904, 335 311.178 C 329.942 306.424, 329.652 305.917, 331.387 304.878 C 339.114 300.249, 347.447 289.018, 351.188 278.190 C 354.406 268.878, 354.389 250.427, 351.155 241.581 C 342.145 216.934, 316.485 203.322, 290.782 209.553 M 481.295 216.962 C 478.032 219.141, 473.031 223.389, 470.181 226.402 C 465.988 230.835, 465 232.542, 465 235.349 L 465 238.818 472.551 234.911 C 476.703 232.762, 482.103 230.499, 484.551 229.883 L 489 228.763 489 220.881 C 489 216.547, 488.601 213, 488.114 213 C 487.627 213, 484.558 214.783, 481.295 216.962 M 292.324 221.380 C 274.013 227.365, 264.359 247.927, 269.540 269.907 C 272.650 283.102, 281.591 295.074, 291.852 299.784 C 296.519 301.926, 298.248 302.183, 305.352 301.793 C 317.650 301.117, 325.902 296.109, 331.421 285.969 C 338.902 272.222, 338.923 253.649, 331.473 238.947 C 325.478 227.116, 316.227 220.839, 304.038 220.330 C 299.516 220.141, 294.829 220.561, 292.324 221.380 M 373.500 241 C 371.850 241.420, 368.137 241.817, 365.250 241.882 C 362.363 241.947, 360 242.450, 360 243 C 360 243.550, 360.473 244, 361.051 244 C 361.629 244, 362.754 245.561, 363.551 247.468 C 364.644 250.083, 365 255.604, 365 269.919 C 365 291.547, 365.880 297.119, 370.336 303.715 C 374.869 310.425, 380.818 313.163, 390.814 313.141 C 399.697 313.122, 405.843 311.249, 411.250 306.913 L 415 303.906 415 307.953 L 415 312 424.500 312 C 429.725 312, 434 311.795, 434 311.545 C 434 311.295, 432.875 309.966, 431.500 308.591 L 429 306.091 429 272.929 L 429 239.767 426.750 240.419 C 425.512 240.778, 421.292 241.341, 417.372 241.671 L 410.244 242.270 412.622 245.775 C 414.911 249.147, 415 249.963, 415 267.482 C 415 284.611, 414.863 285.946, 412.672 290.093 C 406.259 302.236, 388.265 304.595, 381.766 294.144 C 379.593 290.649, 379.487 289.469, 379.188 265.250 C 378.956 246.515, 378.569 240.031, 377.688 240.118 C 377.034 240.183, 375.150 240.580, 373.500 241 M 465.734 241.029 C 450.969 244.738, 441.126 257.112, 440.198 273.134 C 439.623 283.079, 441.273 289.683, 446.163 297.006 C 455.688 311.270, 474.228 317, 494.409 311.919 C 498.960 310.773, 499.238 310.482, 503.067 302.867 C 505.242 298.540, 506.749 295, 506.416 295 C 506.082 295, 504.614 295.849, 503.154 296.886 C 494.852 302.783, 482.021 304.540, 472.782 301.044 C 463.508 297.535, 456 286.920, 456 277.318 L 456 275 481.615 275 L 507.230 275 506.540 269.250 C 504.502 252.270, 492.916 241.073, 476.673 240.387 C 472.728 240.220, 467.806 240.509, 465.734 241.029 M 612.929 241.303 C 602.601 244.233, 595.755 250.094, 591.090 260 C 588.817 264.827, 588.500 266.785, 588.500 276 C 588.500 285.290, 588.808 287.157, 591.170 292.196 C 598.429 307.683, 616.304 316.177, 635.390 313.210 C 645.912 311.574, 647.197 310.757, 650.825 303.400 C 652.571 299.859, 654 296.562, 654 296.073 C 654 295.584, 650.791 296.830, 646.870 298.842 C 640.282 302.222, 639.085 302.499, 631.120 302.491 C 621.413 302.482, 618.033 301.206, 611.744 295.181 C 607.764 291.368, 604 282.998, 604 277.962 L 604 275 629.534 275 L 655.069 275 654.398 269.750 C 652.804 257.269, 645.993 247.096, 636.387 242.847 C 630.661 240.314, 619.098 239.553, 612.929 241.303 M 689.251 241.475 C 670.074 246.894, 659.828 261.377, 661.237 281.072 C 662.690 301.375, 681.567 315.592, 704.505 313.658 C 716.024 312.686, 717.577 311.790, 721.609 303.784 C 723.545 299.940, 724.976 296.643, 724.790 296.456 C 724.603 296.270, 721.732 297.465, 718.409 299.112 C 705.742 305.390, 693.640 303.771, 684.435 294.565 C 664.365 274.496, 683.608 241.758, 708.627 253.407 C 711.448 254.720, 714.062 256.291, 714.436 256.897 C 716.142 259.657, 717 257.384, 717 250.107 C 717 243.553, 716.707 242.102, 715.273 241.551 C 711.350 240.046, 694.484 239.997, 689.251 241.475 M 467.001 252.123 C 462.564 253.893, 457 260.473, 457 263.950 C 457 264.642, 462.797 265, 474 265 C 483.350 265, 491 264.692, 491 264.316 C 491 263.939, 490.073 261.716, 488.940 259.376 C 485.578 252.431, 474.999 248.934, 467.001 252.123 M 613.500 252.995 C 609.366 255.056, 605 260.354, 605 263.312 C 605 264.830, 606.709 265, 621.930 265 L 638.860 265 637.954 261.840 C 635.288 252.544, 623.188 248.167, 613.500 252.995" stroke="none" fill="#14223e" fill-rule="evenodd"/></svg>