<svg xmlns="http://www.w3.org/2000/svg" width="1034" height="396" viewBox="11300 0 3382 702" version="1.1"><path d="" stroke="none" fill="#0464ac" fill-rule="evenodd"/><path d="M 160.555 80.556 C 134.725 85.406, 111.793 97.403, 92.414 116.204 C 75.989 132.141, 65.387 148.692, 58.596 169 C 53.033 185.638, 51.701 195.564, 52.288 216 C 52.952 239.068, 56.154 252.343, 65.631 271.319 C 79.390 298.869, 104.004 322.154, 131.927 334.037 C 144.051 339.196, 155.166 341.741, 217 353.517 C 250.275 359.854, 279.609 365.732, 282.187 366.579 C 303.758 373.667, 318.522 398.097, 314.971 420.826 C 312.562 436.250, 301.943 451.001, 288.561 457.515 C 283.293 460.078, 256.988 467.466, 185 486.597 C 123.588 502.919, 86.137 513.346, 82 515.276 C 77.392 517.427, 73.294 520.520, 67.920 525.905 C 56.403 537.445, 52.024 548.078, 52.024 564.500 C 52.024 580.826, 56.394 591.399, 67.978 603.095 C 76.055 611.251, 83.988 615.847, 94.096 618.227 C 98.353 619.230, 133.679 619.500, 260.500 619.500 C 413.861 619.500, 421.782 619.413, 427.448 617.665 C 447.137 611.589, 461.612 596.987, 466.416 578.356 C 468.424 570.568, 468.447 558.137, 466.469 550.542 C 463.056 537.437, 461.428 535.468, 414.507 487.667 C 390.303 463.008, 369.051 440.550, 367.279 437.759 C 354.622 417.820, 357.166 390.811, 373.348 373.337 C 384.305 361.504, 397.055 355.763, 412.500 355.707 C 426.115 355.658, 437.380 359.538, 447.153 367.642 C 449.712 369.764, 468.891 389.950, 489.774 412.500 C 510.657 435.050, 529.060 454.459, 530.670 455.631 C 535.275 458.984, 543.058 462.670, 549.460 464.531 C 554.009 465.854, 557.832 466.132, 566.417 465.766 C 578.882 465.234, 584.728 463.455, 593.793 457.437 C 604.424 450.378, 610.838 442.171, 615.921 429.120 L 618.500 422.500 618.789 332 C 618.996 267.384, 618.751 239.542, 617.933 234.652 C 617.239 230.509, 615.193 224.620, 612.750 219.741 C 598.220 190.710, 561.364 180.392, 534.414 197.811 C 530.138 200.575, 514.495 216.446, 478.634 254.403 C 445.489 289.486, 427.015 308.295, 423.476 310.558 C 408.041 320.432, 387.564 321.776, 371.446 313.974 C 360.826 308.833, 350.600 297.833, 344.976 285.500 C 343.471 282.200, 335.866 256.775, 328.076 229 C 320.287 201.225, 312.739 174.900, 311.304 170.500 C 298.893 132.452, 269.526 101.594, 231.819 86.983 C 217.837 81.565, 207.443 79.791, 187.500 79.419 C 173.582 79.159, 166.375 79.464, 160.555 80.556 M 1542.086 84.750 C 1539.975 86.480, 1539.954 86.864, 1540.226 118.971 L 1540.500 151.442 1543 152.706 C 1544.904 153.669, 1556.293 153.974, 1590.800 153.985 C 1629.469 153.998, 1636.531 153.777, 1639.050 152.474 L 1642 150.949 1642 118.531 C 1642 86.165, 1641.996 86.111, 1639.777 84.557 C 1637.843 83.202, 1631.507 83, 1590.888 83 C 1547.924 83, 1544.052 83.139, 1542.086 84.750 M 1773 86 C 1771.053 87.947, 1771 89.333, 1771 138.465 C 1771 187.334, 1770.939 188.962, 1769.066 189.965 C 1767.891 190.594, 1757.956 191, 1743.754 191 C 1721.610 191, 1720.262 191.108, 1718.189 193.039 C 1716.020 195.059, 1716 195.392, 1716 228.966 L 1716 262.855 1718.635 264.927 C 1721.132 266.892, 1722.507 267, 1745.012 267 C 1763.392 267, 1769.001 267.297, 1769.845 268.313 C 1770.614 269.240, 1771.030 306.899, 1771.259 396.563 C 1771.581 522.043, 1771.609 523.607, 1773.721 532.782 C 1779.711 558.812, 1788.377 576.184, 1802.931 591.340 C 1822.106 611.307, 1847.458 622.629, 1880.689 626.066 C 1901.209 628.188, 1949.997 625.931, 1967.211 622.064 C 1975.224 620.264, 1975 621.445, 1975 581.012 C 1975 548.956, 1974.828 545.102, 1973.346 543.872 C 1972.013 542.767, 1964.872 542.500, 1936.596 542.500 C 1902.851 542.500, 1901.246 542.414, 1894.897 540.255 C 1886.923 537.544, 1880.080 531.861, 1876.914 525.322 C 1871.412 513.957, 1871.627 519.075, 1871.261 390.633 C 1870.958 284.204, 1871.086 271.517, 1872.485 269.383 L 1874.046 267 1921.888 267 C 1968.775 267, 1969.783 266.959, 1972.365 264.927 L 1975 262.855 1975 228.927 C 1975 196.333, 1974.921 194.921, 1973 193 C 1971.055 191.055, 1969.667 191, 1922.622 191 C 1878.840 191, 1874.115 190.843, 1872.872 189.346 C 1871.739 187.980, 1871.562 179.084, 1871.859 138.276 L 1872.217 88.860 1869.934 86.430 L 1867.651 84 1821.326 84 C 1776.333 84, 1774.942 84.058, 1773 86 M 1034 181.695 C 999.424 185.398, 972.414 198.529, 946.605 224.183 C 939.513 231.232, 932.936 237, 931.990 237 C 931.044 237, 929.052 236.042, 927.564 234.872 L 924.859 232.744 925.573 214.339 C 926.284 196.008, 926.278 195.924, 923.969 193.467 L 921.651 191 877.280 191 L 832.909 191 830.615 193.295 L 828.320 195.589 827.651 328.545 C 827.283 401.670, 826.950 496.101, 826.909 538.390 L 826.836 615.280 828.946 617.390 C 831.033 619.478, 831.558 619.500, 878.923 619.500 C 925.336 619.500, 926.857 619.439, 928.993 617.506 L 931.196 615.513 930.348 482.006 C 929.315 319.347, 929.226 328.384, 931.948 318.430 C 939.499 290.818, 959.215 270.578, 986.500 262.427 C 994.060 260.169, 997.421 259.735, 1007.500 259.714 C 1021.109 259.686, 1028.181 261.184, 1039.840 266.566 C 1061.997 276.791, 1078.649 296.445, 1084.606 319.399 C 1086.415 326.374, 1086.504 349.254, 1085.374 517.500 C 1084.725 614.280, 1084.728 614.506, 1086.773 617 L 1088.822 619.500 1134.905 619.779 C 1175.002 620.022, 1181.377 619.856, 1183.993 618.503 C 1185.647 617.648, 1187.112 616.398, 1187.250 615.724 C 1187.388 615.051, 1187.500 548.800, 1187.500 468.500 C 1187.500 304.562, 1186.839 319.087, 1195.059 302.417 C 1214.793 262.398, 1265.065 247.429, 1303.665 270.077 C 1311.138 274.461, 1326.510 289.812, 1330.865 297.239 C 1335.658 305.411, 1339.677 317.994, 1340.958 328.833 C 1341.743 335.476, 1341.866 378.116, 1341.386 476.833 L 1340.711 615.500 1342.960 617.500 C 1345.128 619.428, 1346.833 619.510, 1390.463 619.779 C 1418.449 619.952, 1436.705 619.683, 1438.306 619.074 C 1444.285 616.800, 1444.003 626.814, 1442.460 471.813 C 1441.088 334.046, 1440.629 318.141, 1437.440 298 C 1424.983 219.317, 1376.695 178.313, 1300 181.292 C 1283.243 181.943, 1271.763 183.802, 1258.741 187.974 C 1229.874 197.222, 1204.943 217.462, 1184.524 248.225 C 1181.339 253.024, 1177.910 257.211, 1176.904 257.530 C 1173.705 258.546, 1171.069 256.109, 1167.968 249.270 C 1163.280 238.931, 1152.446 223.446, 1143.969 214.969 C 1126.058 197.058, 1102.853 186.238, 1074.334 182.499 C 1064.011 181.146, 1043.032 180.728, 1034 181.695 M 2676.500 182.037 C 2647.697 184.940, 2623.192 191.532, 2600.500 202.481 C 2537.050 233.096, 2499.114 294.731, 2491.942 378.857 C 2490.247 398.747, 2491.227 434.232, 2493.978 452.500 C 2509.171 553.421, 2570.653 615.604, 2666.970 627.464 C 2681.544 629.259, 2714.474 629.507, 2728.789 627.930 C 2787.666 621.445, 2837.613 591.958, 2866.339 546.726 C 2875.642 532.077, 2884.767 510.298, 2889.057 492.500 C 2891.566 482.092, 2891.551 477.551, 2889 475 C 2887.062 473.062, 2885.667 473, 2843.674 473 L 2800.349 473 2798.338 475.250 C 2797.210 476.513, 2795.151 482.106, 2793.643 488 C 2786.523 515.847, 2769.545 537.657, 2746.440 548.640 C 2731.937 555.535, 2722.569 557.426, 2703 557.409 C 2671.610 557.382, 2650.303 549.865, 2631.970 532.349 C 2612.306 513.562, 2601.034 486.024, 2595.806 444 C 2593.802 427.890, 2594.143 378.683, 2596.364 363.500 C 2604.203 309.913, 2622.311 278.751, 2654.544 263.381 C 2681.034 250.748, 2717.601 250.184, 2743.673 262.006 C 2767.903 272.992, 2786.129 297.321, 2793.113 328 C 2794.409 333.691, 2796.092 338.402, 2797.312 339.750 L 2799.349 342 2842.019 342 C 2891.920 342, 2888.758 342.709, 2887.599 331.775 C 2883.473 292.875, 2867.241 258.049, 2841.075 231.959 C 2814.775 205.736, 2781.451 189.908, 2739 183.478 C 2726.506 181.585, 2689.459 180.731, 2676.500 182.037 M 3090 182.038 C 3038.205 186.925, 2999.883 202.001, 2974.500 227.477 C 2952.982 249.074, 2942.755 273.603, 2941.343 307 C 2939.048 361.296, 2962.128 397.391, 3012.715 418.621 C 3036.451 428.582, 3059.979 434.183, 3119.132 443.953 C 3157.541 450.297, 3174.292 453.938, 3187.874 458.895 C 3217.157 469.582, 3228.288 485.579, 3224.025 510.853 C 3218.284 544.889, 3182.393 563.691, 3127 561.680 C 3095.619 560.540, 3074.820 554.561, 3057.288 541.639 C 3041.864 530.270, 3031.723 509.831, 3029.468 485.570 C 3028.877 479.212, 3028.271 477.180, 3026.411 475.320 L 3024.091 473 2980 473 L 2935.909 473 2933.455 475.455 C 2930.624 478.285, 2930.386 481.608, 2932.053 495.026 C 2935.181 520.199, 2942.237 540.084, 2954.714 558.889 C 2962.005 569.876, 2977.909 585.750, 2989.605 593.712 C 3013.581 610.035, 3045.567 621.404, 3082 626.551 C 3097.540 628.747, 3144.865 629.640, 3161.795 628.057 C 3248.275 619.972, 3306.370 578.977, 3318.970 517.145 C 3321.513 504.668, 3321.756 480.664, 3319.474 467.381 C 3312.032 424.059, 3284.479 395.245, 3234.500 378.515 C 3212.832 371.263, 3189.105 366.420, 3136.500 358.514 C 3094.185 352.155, 3075.919 347.626, 3060.563 339.686 C 3044.473 331.367, 3037.751 321.145, 3037.754 305 C 3037.758 279.745, 3051.085 261.460, 3075.725 252.904 C 3086.564 249.141, 3094.496 247.903, 3111.500 247.323 C 3138.081 246.416, 3153.959 249.255, 3171.971 258.136 C 3180.785 262.482, 3183.734 264.591, 3190.610 271.467 C 3197.325 278.182, 3199.593 281.313, 3203.364 289.067 C 3206.082 294.659, 3208.833 302.369, 3210.117 308 C 3211.410 313.665, 3213.105 318.408, 3214.317 319.750 L 3216.349 322 3259.519 322 C 3301.879 322, 3302.725 321.961, 3304.560 319.934 C 3305.960 318.387, 3306.373 316.570, 3306.204 312.697 C 3305.559 297.873, 3299.588 276.054, 3292.153 261.349 C 3270.564 218.653, 3225.320 191.781, 3161 183.453 C 3146.330 181.553, 3104.068 180.711, 3090 182.038 M 2175.189 184.572 C 2105.697 194.696, 2052.572 245.789, 2030.080 324.129 C 2013.385 382.281, 2015.952 456.467, 2036.569 511.640 C 2041.787 525.602, 2050.643 542.857, 2059.123 555.582 C 2068.731 570.002, 2089.482 590.957, 2103 599.891 C 2139.286 623.873, 2185.964 632.956, 2232.257 625.042 C 2263.108 619.767, 2289.974 605.863, 2312.970 583.269 C 2319.279 577.071, 2325.093 572, 2325.892 572 C 2326.690 572, 2328.119 572.703, 2329.068 573.562 C 2330.629 574.974, 2330.744 577.054, 2330.266 595.312 C 2329.744 615.265, 2329.764 615.523, 2331.973 617.500 C 2334.124 619.425, 2335.842 619.511, 2377.854 619.797 C 2401.859 619.961, 2422.966 619.828, 2424.758 619.501 C 2431.673 618.239, 2431.323 625.704, 2429.930 509.119 C 2428.926 425.033, 2428.925 383.455, 2429.928 299.994 L 2431.180 195.820 2428.916 193.410 L 2426.651 191 2380 191 L 2333.349 191 2331.080 193.415 C 2328.837 195.803, 2328.819 196.032, 2329.538 213.403 C 2330.575 238.445, 2329.322 239.292, 2313.534 224.219 C 2289.369 201.147, 2261.815 188.500, 2226.026 184.053 C 2214.535 182.625, 2186.592 182.910, 2175.189 184.572 M 1542.174 193.314 L 1540 195.629 1540 405.204 C 1540 610.035, 1540.043 614.832, 1541.911 617.139 L 1543.822 619.500 1589.161 619.788 C 1614.097 619.946, 1635.500 619.828, 1636.722 619.526 C 1637.945 619.223, 1639.857 617.996, 1640.972 616.799 C 1642.996 614.627, 1643 614.193, 1643 405.266 L 1643 195.909 1640.545 193.455 L 1638.091 191 1591.220 191 L 1544.349 191 1542.174 193.314 M 2213 255.048 C 2161.734 261.391, 2130.697 300.301, 2122.901 368 C 2121.321 381.722, 2121.326 419.403, 2122.910 434 C 2127.828 479.315, 2140.727 511.264, 2162.331 531.640 C 2180.177 548.470, 2200.320 556, 2227.500 556 C 2273.109 556, 2305.985 531.932, 2321.753 487 C 2335.865 446.787, 2337.817 384.647, 2326.386 339.552 C 2314.659 293.287, 2288.075 264.176, 2250.567 256.525 C 2240.723 254.517, 2222.941 253.818, 2213 255.048" stroke="none" fill="#045cac" fill-rule="evenodd"/></svg>