<?xml version="1.0" encoding="utf-8"?>
<svg width="300%" height="300%" viewBox="0 0 197 34" xmlns="http://www.w3.org/2000/svg">
  <path stroke="none" fill="#0464ac" fill-rule="evenodd"/>
  <path d="M 6.512 0.073 C 4.962 0.365 3.586 1.085 2.423 2.214 C 1.438 3.17 0.802 4.164 0.394 5.384 C 0.061 6.383 -0.019 6.978 0.016 8.206 C 0.056 9.59 0.248 10.388 0.817 11.527 C 1.642 13.181 3.119 14.579 4.794 15.292 C 5.522 15.602 6.188 15.755 9.899 16.462 C 11.895 16.842 13.655 17.196 13.81 17.246 C 15.104 17.672 15.99 19.139 15.777 20.503 C 15.632 21.429 14.995 22.315 14.192 22.706 C 13.876 22.859 12.298 23.303 7.979 24.452 C 4.294 25.432 2.047 26.058 1.799 26.174 C 1.522 26.303 1.276 26.489 0.954 26.812 C 0.263 27.505 0 28.143 0 29.129 C 0 30.109 0.262 30.744 0.957 31.446 C 1.442 31.936 1.918 32.212 2.524 32.355 C 2.78 32.415 4.899 32.431 12.508 32.431 C 21.71 32.431 22.186 32.426 22.525 32.321 C 23.707 31.956 24.575 31.08 24.863 29.961 C 24.984 29.494 24.985 28.747 24.866 28.291 C 24.662 27.505 24.564 27.386 21.749 24.516 C 20.297 23.035 19.022 21.687 18.915 21.52 C 18.156 20.323 18.308 18.701 19.279 17.652 C 19.937 16.942 20.702 16.597 21.628 16.593 C 22.445 16.59 23.121 16.823 23.708 17.31 C 23.861 17.438 25.012 18.649 26.265 20.003 C 27.518 21.357 28.622 22.523 28.718 22.593 C 28.995 22.794 29.462 23.016 29.846 23.127 C 30.119 23.207 30.349 23.223 30.863 23.201 C 31.612 23.169 31.962 23.062 32.506 22.701 C 33.144 22.277 33.529 21.785 33.833 21.001 L 33.988 20.604 L 34.006 15.17 C 34.018 11.291 34.003 9.619 33.955 9.326 C 33.913 9.076 33.79 8.723 33.643 8.43 C 32.771 6.687 30.56 6.068 28.943 7.114 C 28.687 7.279 27.748 8.232 25.597 10.511 C 23.608 12.618 22.499 13.747 22.287 13.883 C 21.361 14.476 20.132 14.556 19.165 14.088 C 18.528 13.779 17.914 13.119 17.577 12.378 C 17.487 12.18 17.03 10.654 16.563 8.986 C 16.096 7.318 15.643 5.738 15.557 5.474 C 14.812 3.189 13.05 1.337 10.787 0.459 C 9.949 0.134 9.325 0.028 8.129 0.005 C 7.294 -0.01 6.861 0.008 6.512 0.073 M 89.403 0.326 C 89.276 0.429 89.275 0.452 89.291 2.38 L 89.308 4.329 L 89.458 4.406 C 89.572 4.463 90.256 4.481 92.326 4.482 C 94.646 4.483 95.07 4.47 95.221 4.391 L 95.398 4.3 L 95.398 2.353 C 95.398 0.41 95.398 0.407 95.264 0.314 C 95.149 0.232 94.768 0.22 92.332 0.22 C 89.753 0.22 89.521 0.228 89.403 0.326 M 103.258 0.401 C 103.141 0.517 103.138 0.601 103.138 3.55 C 103.138 6.484 103.135 6.582 103.022 6.642 C 102.952 6.68 102.355 6.705 101.503 6.705 C 100.175 6.705 100.094 6.711 99.97 6.827 C 99.839 6.948 99.838 6.968 99.838 8.984 L 99.838 11.019 L 99.996 11.143 C 100.146 11.261 100.228 11.267 101.579 11.267 C 102.682 11.267 103.018 11.285 103.069 11.346 C 103.115 11.402 103.14 13.663 103.154 19.046 C 103.173 26.58 103.175 26.674 103.301 27.225 C 103.661 28.788 104.18 29.831 105.054 30.741 C 106.204 31.939 107.725 32.619 109.72 32.826 C 110.951 32.953 113.878 32.817 114.911 32.585 C 115.391 32.477 115.378 32.548 115.378 30.121 C 115.378 28.196 115.367 27.964 115.279 27.891 C 115.199 27.825 114.77 27.808 113.074 27.808 C 111.049 27.808 110.953 27.803 110.572 27.673 C 110.093 27.511 109.683 27.169 109.493 26.777 C 109.163 26.095 109.175 26.402 109.154 18.69 C 109.135 12.3 109.143 11.539 109.227 11.41 L 109.321 11.267 L 112.191 11.267 C 115.004 11.267 115.065 11.265 115.22 11.143 L 115.378 11.019 L 115.378 8.981 C 115.378 7.025 115.373 6.94 115.258 6.825 C 115.141 6.708 115.058 6.705 112.235 6.705 C 109.609 6.705 109.325 6.695 109.25 6.605 C 109.183 6.523 109.172 5.989 109.19 3.539 L 109.211 0.572 L 109.074 0.426 L 108.937 0.28 L 106.157 0.28 C 103.458 0.28 103.375 0.283 103.258 0.401 M 58.918 6.146 C 56.843 6.368 55.223 7.157 53.675 8.697 C 53.249 9.12 52.855 9.466 52.798 9.466 C 52.741 9.466 52.621 9.409 52.532 9.339 L 52.37 9.211 L 52.412 8.105 C 52.456 7.005 52.455 7 52.316 6.852 L 52.177 6.705 L 49.515 6.705 L 46.853 6.705 L 46.715 6.842 L 46.577 6.98 L 46.537 14.962 C 46.515 19.353 46.495 25.022 46.493 27.562 L 46.489 32.178 L 46.615 32.304 C 46.74 32.43 46.772 32.431 49.613 32.431 C 52.399 32.431 52.49 32.428 52.618 32.312 L 52.75 32.192 L 52.699 24.176 C 52.637 14.41 52.632 14.953 52.795 14.355 C 53.248 12.698 54.431 11.482 56.068 10.993 C 56.522 10.857 56.723 10.831 57.328 10.83 C 58.145 10.828 58.569 10.919 59.269 11.242 C 60.598 11.855 61.597 13.035 61.955 14.414 C 62.063 14.832 62.068 16.206 62 26.307 C 61.962 32.118 61.962 32.132 62.084 32.281 L 62.207 32.431 L 64.973 32.448 C 67.378 32.463 67.761 32.453 67.918 32.372 C 68.017 32.32 68.105 32.245 68.113 32.205 C 68.122 32.164 68.128 28.187 68.128 23.366 C 68.128 13.523 68.089 14.394 68.582 13.394 C 69.766 10.991 72.782 10.092 75.098 11.452 C 75.547 11.715 76.469 12.637 76.73 13.083 C 77.018 13.574 77.259 14.329 77.336 14.98 C 77.383 15.379 77.39 17.939 77.362 23.866 L 77.321 32.191 L 77.456 32.311 C 77.586 32.427 77.688 32.432 80.306 32.448 C 81.985 32.459 83.08 32.443 83.176 32.406 C 83.535 32.269 83.518 32.871 83.426 23.564 C 83.344 15.293 83.316 14.338 83.125 13.129 C 82.377 8.404 79.48 5.943 74.878 6.122 C 73.873 6.161 73.184 6.272 72.403 6.523 C 70.67 7.078 69.175 8.293 67.949 10.14 C 67.759 10.429 67.553 10.68 67.492 10.699 C 67.3 10.76 67.142 10.613 66.956 10.203 C 66.675 9.582 66.025 8.652 65.516 8.143 C 64.442 7.068 63.049 6.419 61.338 6.194 C 60.719 6.113 59.46 6.088 58.918 6.146 M 157.468 6.167 C 155.74 6.341 154.269 6.736 152.908 7.394 C 149.101 9.232 146.825 12.932 146.394 17.983 C 146.293 19.178 146.351 21.308 146.516 22.405 C 147.428 28.464 151.117 32.198 156.896 32.91 C 157.771 33.017 159.746 33.032 160.605 32.937 C 164.138 32.548 167.134 30.778 168.858 28.062 C 169.416 27.183 169.964 25.875 170.221 24.806 C 170.372 24.182 170.371 23.909 170.218 23.755 C 170.101 23.639 170.018 23.635 167.498 23.635 L 164.899 23.635 L 164.778 23.77 C 164.71 23.847 164.587 24.182 164.496 24.536 C 164.069 26.208 163.051 27.518 161.664 28.177 C 160.794 28.591 160.232 28.704 159.058 28.704 C 157.174 28.702 155.896 28.25 154.796 27.199 C 153.616 26.071 152.94 24.418 152.626 21.895 C 152.506 20.927 152.527 17.973 152.66 17.061 C 153.13 13.844 154.216 11.973 156.151 11.05 C 157.74 10.292 159.934 10.258 161.498 10.968 C 162.952 11.627 164.045 13.088 164.464 14.93 C 164.542 15.272 164.643 15.555 164.716 15.636 L 164.839 15.771 L 167.399 15.771 C 170.393 15.771 170.203 15.813 170.134 15.156 C 169.886 12.821 168.912 10.73 167.342 9.163 C 165.764 7.589 163.765 6.639 161.218 6.253 C 160.468 6.139 158.245 6.088 157.468 6.167 M 182.278 6.167 C 179.17 6.46 176.87 7.365 175.348 8.894 C 174.056 10.191 173.443 11.664 173.358 13.669 C 173.221 16.929 174.605 19.096 177.641 20.371 C 179.065 20.969 180.476 21.305 184.025 21.892 C 186.33 22.272 187.335 22.491 188.15 22.789 C 189.907 23.431 190.575 24.391 190.319 25.908 C 189.975 27.952 187.821 29.081 184.498 28.96 C 182.615 28.892 181.367 28.532 180.315 27.757 C 179.389 27.074 178.781 25.847 178.646 24.39 C 178.61 24.009 178.574 23.886 178.462 23.775 L 178.323 23.635 L 175.678 23.635 L 173.032 23.635 L 172.885 23.783 C 172.715 23.953 172.701 24.152 172.801 24.958 C 172.988 26.469 173.412 27.663 174.16 28.792 C 174.598 29.452 175.552 30.405 176.254 30.883 C 177.692 31.863 179.612 32.546 181.798 32.854 C 182.73 32.987 185.569 33.04 186.585 32.945 C 191.774 32.46 195.26 29.998 196.016 26.286 C 196.168 25.537 196.183 24.096 196.046 23.298 C 195.6 20.697 193.947 18.967 190.948 17.963 C 189.648 17.528 188.224 17.236 185.068 16.762 C 182.528 16.38 181.433 16.108 180.511 15.631 C 179.546 15.132 179.143 14.518 179.143 13.549 C 179.143 12.033 179.942 10.935 181.421 10.421 C 182.071 10.195 182.548 10.121 183.568 10.086 C 185.162 10.032 186.115 10.202 187.196 10.735 C 187.725 10.996 187.902 11.123 188.314 11.536 C 188.717 11.939 188.853 12.127 189.079 12.593 C 189.243 12.928 189.408 13.391 189.485 13.729 C 189.562 14.069 189.664 14.354 189.737 14.435 L 189.859 14.57 L 192.449 14.57 C 194.991 14.57 195.041 14.567 195.151 14.446 C 195.235 14.352 195.26 14.244 195.25 14.011 C 195.211 13.121 194.853 11.811 194.407 10.928 C 193.111 8.365 190.397 6.751 186.538 6.251 C 185.657 6.137 183.122 6.087 182.278 6.167 M 127.389 6.319 C 123.22 6.926 120.032 9.994 118.683 14.698 C 117.681 18.189 117.835 22.643 119.072 25.955 C 119.385 26.794 119.917 27.83 120.425 28.594 C 121.002 29.46 122.247 30.717 123.058 31.254 C 125.235 32.694 128.036 33.239 130.813 32.764 C 132.664 32.447 134.276 31.613 135.656 30.256 C 136.034 29.884 136.384 29.58 136.432 29.58 C 136.479 29.58 136.565 29.622 136.622 29.673 C 136.715 29.758 136.723 29.883 136.694 30.979 C 136.663 32.177 136.664 32.193 136.796 32.311 C 136.925 32.427 137.029 32.432 139.549 32.449 C 140.989 32.459 142.256 32.451 142.363 32.431 C 142.778 32.355 142.757 32.804 142.673 25.804 C 142.613 20.756 142.613 18.26 142.673 13.248 L 142.748 6.994 L 142.613 6.849 L 142.477 6.705 L 139.678 6.705 L 136.879 6.705 L 136.742 6.849 C 136.608 6.993 136.607 7.007 136.65 8.05 C 136.712 9.553 136.637 9.604 135.69 8.699 C 134.24 7.313 132.587 6.555 130.439 6.287 C 129.75 6.201 128.074 6.219 127.389 6.319 M 89.408 6.843 L 89.278 6.983 L 89.278 19.565 C 89.278 31.863 89.281 32.151 89.393 32.289 L 89.507 32.431 L 92.228 32.449 C 93.724 32.458 95.008 32.451 95.081 32.433 C 95.155 32.415 95.269 32.341 95.336 32.269 C 95.458 32.139 95.458 32.113 95.458 19.569 L 95.458 6.999 L 95.311 6.852 L 95.164 6.705 L 92.351 6.705 L 89.539 6.705 L 89.408 6.843 M 129.658 10.55 C 126.582 10.931 124.72 13.267 124.252 17.331 C 124.157 18.155 124.157 20.417 124.252 21.294 C 124.547 24.015 125.321 25.933 126.618 27.156 C 127.688 28.167 128.897 28.619 130.528 28.619 C 133.264 28.619 135.237 27.174 136.183 24.476 C 137.03 22.062 137.147 18.331 136.461 15.624 C 135.757 12.846 134.162 11.098 131.912 10.639 C 131.321 10.518 130.255 10.476 129.658 10.55" stroke="none" fill="#045cac" fill-rule="evenodd"/>
</svg>