<svg xmlns="http://www.w3.org/2000/svg" width="240" height="116" viewBox="370 0 240 116" version="1.1"><path d="M 45.105 11.583 C 36.892 13.791, 30.118 17.843, 23.500 24.505 C 16.345 31.708, 12.338 39.457, 10.226 50.174 C 8.837 57.225, 8.837 58.775, 10.226 65.826 C 11.074 70.131, 13.058 76.308, 14.634 79.554 C 18.096 86.682, 27.571 96.509, 34.575 100.235 C 60.947 114.264, 92.854 101.785, 103.137 73.419 C 106.142 65.130, 106.142 50.870, 103.137 42.581 C 94.398 18.474, 69.310 5.073, 45.105 11.583 M 53.463 29.500 C 51.464 33.075, 49.619 36, 49.364 36 C 49.109 36, 47.531 35.292, 45.857 34.426 C 44.184 33.561, 42.587 33.080, 42.309 33.357 C 42.032 33.635, 42.792 38.199, 44 43.500 C 45.208 48.801, 46.029 53.305, 45.824 53.509 C 45.620 53.713, 43.128 52.107, 40.286 49.940 C 37.445 47.773, 34.633 46, 34.038 46 C 33.444 46, 32.434 47.147, 31.796 48.549 C 30.699 50.956, 30.337 51.061, 25.317 50.434 C 19.365 49.690, 19.466 49.533, 21.168 56.909 C 22.181 61.295, 22.115 62.216, 20.676 63.806 C 19.097 65.550, 19.464 66.001, 28.007 72.842 C 32.953 76.802, 37 80.505, 37 81.071 C 37 81.637, 36.313 83.427, 35.474 85.050 L 33.949 88 38.866 88 C 44.442 88, 44.367 88.119, 45.566 77.269 C 45.944 73.843, 46.594 71.249, 47.009 71.506 C 47.424 71.762, 48.086 74.982, 48.480 78.660 C 49.367 86.941, 49.764 88, 51.978 88 C 53.890 88, 53.895 87.975, 56.104 67.723 C 56.751 61.796, 57.413 57.080, 57.575 57.242 C 57.863 57.529, 61 84.814, 61 87.026 C 61 87.638, 62.006 87.995, 63.235 87.820 C 65.230 87.534, 65.597 86.604, 66.651 79.167 C 67.300 74.584, 68.035 70.632, 68.283 70.384 C 68.531 70.136, 69.053 72.760, 69.444 76.216 C 70.814 88.353, 70.613 88, 76.151 88 L 81.051 88 79.526 85.050 C 78.687 83.427, 78 81.666, 78 81.137 C 78 80.608, 82.044 76.902, 86.986 72.901 C 95.510 66.002, 95.888 65.533, 94.318 63.799 C 92.886 62.216, 92.820 61.290, 93.832 56.909 C 95.534 49.536, 95.632 49.691, 89.703 50.431 C 84.512 51.080, 84.378 51.032, 82.942 47.999 L 81.476 44.905 75.497 49.378 C 72.208 51.838, 69.390 53.723, 69.234 53.567 C 69.078 53.411, 69.910 48.918, 71.083 43.583 C 72.257 38.248, 72.985 33.651, 72.701 33.368 C 72.418 33.084, 70.752 33.594, 69 34.500 C 67.248 35.406, 65.677 36.002, 65.509 35.824 C 65.342 35.646, 63.562 32.688, 61.554 29.250 C 59.547 25.813, 57.723 23, 57.501 23 C 57.279 23, 55.462 25.925, 53.463 29.500" stroke="none" fill="#fbf8f8" fill-rule="evenodd"/><path d="M 0 58 L 0 116 57.500 116 L 115 116 115 58 L 115 0 57.500 0 L 0 0 0 58 M 125 26.500 L 125 53 128.500 53 L 132 53 132.105 39.750 L 132.210 26.500 134.886 39.500 L 137.561 52.500 142.281 52.805 L 147 53.110 147 26.494 L 147 -0.121 143.250 0.190 L 139.500 0.500 139 12 L 138.500 23.500 137.182 16.500 C 136.458 12.650, 135.408 7.362, 134.850 4.750 L 133.834 -0 129.417 -0 L 125 0 125 26.500 M 152.923 2.923 C 150.330 5.516, 150 6.536, 150 11.955 C 150 19.409, 151.615 23.417, 156.466 28 C 158.504 29.925, 160.807 32.715, 161.585 34.200 C 164.779 40.296, 161.937 50.369, 158.392 45.521 C 157.626 44.474, 157 41.454, 157 38.809 L 157 34 153.500 34 L 150 34 150 40.050 C 150 47.955, 151.901 51.590, 156.804 53.059 C 170.602 57.193, 176.613 36.778, 164.930 25.465 C 162.678 23.284, 160.197 20.285, 159.418 18.800 C 157.439 15.032, 157.550 8.110, 159.601 7.323 C 161.857 6.457, 162.967 8.730, 162.985 14.250 L 163 19 166.500 19 L 170 19 170 13.047 C 170 3.364, 167.261 0, 159.376 0 C 156.808 0, 155.050 0.796, 152.923 2.923 M 173.667 0.667 C 173.300 1.033, 173 12.958, 173 27.167 L 173 53 183 53 L 193 53 193 49.500 L 193 46 187 46 L 181 46 181 37.500 L 181 29 185.063 29 C 189.045 29, 189.120 28.935, 188.813 25.750 C 188.527 22.783, 188.174 22.473, 184.750 22.190 L 181 21.879 181 14.440 L 181 7 186.500 7 L 192 7 192 3.500 L 192 0 183.167 0 C 178.308 0, 174.033 0.300, 173.667 0.667 M 196 26.500 L 196 53 200 53 L 204 53 204 41 C 204 34.400, 204.360 29, 204.800 29 C 207.181 29, 208 31.975, 208 40.618 C 208 52.280, 208.284 53, 212.882 53 L 216.551 53 216.184 42.250 C 215.966 35.855, 215.256 30.341, 214.430 28.639 C 213.234 26.173, 213.246 25.486, 214.521 23.666 C 216.582 20.724, 216.547 7.226, 214.471 4.261 C 212.655 1.669, 207.316 0.013, 200.750 0.006 L 196 0 196 26.500 M 222.766 2.918 L 219.500 5.836 219.500 26.345 C 219.500 45.496, 219.636 47.036, 221.561 49.614 C 224.365 53.370, 228.257 54.539, 233.113 53.084 C 238.105 51.589, 240 48.003, 240 40.050 L 240 34 236.500 34 L 233 34 233 38.809 C 233 41.554, 232.356 44.451, 231.500 45.559 C 230.015 47.480, 229.985 47.480, 228.500 45.559 C 227.304 44.011, 227 40.230, 227 26.891 C 227 17.691, 227.273 9.452, 227.607 8.582 C 228.392 6.536, 231.608 6.536, 232.393 8.582 C 232.727 9.452, 233 12.152, 233 14.582 C 233 18.965, 233.028 19, 236.500 19 L 240 19 240 12.423 C 240 6.487, 239.715 5.561, 237.077 2.923 C 232.999 -1.155, 227.326 -1.157, 222.766 2.918 M 204 14.500 C 204 20.420, 204.309 22, 205.465 22 C 210.455 22, 209.745 7.117, 204.750 7.015 C 204.338 7.007, 204 10.375, 204 14.500 M 45.105 11.583 C 36.892 13.791, 30.118 17.843, 23.500 24.505 C 16.345 31.708, 12.338 39.457, 10.226 50.174 C 8.837 57.225, 8.837 58.775, 10.226 65.826 C 11.074 70.131, 13.058 76.308, 14.634 79.554 C 18.096 86.682, 27.571 96.509, 34.575 100.235 C 60.947 114.264, 92.854 101.785, 103.137 73.419 C 106.142 65.130, 106.142 50.870, 103.137 42.581 C 94.398 18.474, 69.310 5.073, 45.105 11.583 M 53.463 29.500 C 51.464 33.075, 49.619 36, 49.364 36 C 49.109 36, 47.531 35.292, 45.857 34.426 C 44.184 33.561, 42.587 33.080, 42.309 33.357 C 42.032 33.635, 42.792 38.199, 44 43.500 C 45.208 48.801, 46.029 53.305, 45.824 53.509 C 45.620 53.713, 43.128 52.107, 40.286 49.940 C 37.445 47.773, 34.633 46, 34.038 46 C 33.444 46, 32.434 47.147, 31.796 48.549 C 30.699 50.956, 30.337 51.061, 25.317 50.434 C 19.365 49.690, 19.466 49.533, 21.168 56.909 C 22.181 61.295, 22.115 62.216, 20.676 63.806 C 19.097 65.550, 19.464 66.001, 28.007 72.842 C 32.953 76.802, 37 80.505, 37 81.071 C 37 81.637, 36.313 83.427, 35.474 85.050 L 33.949 88 38.866 88 C 44.442 88, 44.367 88.119, 45.566 77.269 C 45.944 73.843, 46.594 71.249, 47.009 71.506 C 47.424 71.762, 48.086 74.982, 48.480 78.660 C 49.367 86.941, 49.764 88, 51.978 88 C 53.890 88, 53.895 87.975, 56.104 67.723 C 56.751 61.796, 57.413 57.080, 57.575 57.242 C 57.863 57.529, 61 84.814, 61 87.026 C 61 87.638, 62.006 87.995, 63.235 87.820 C 65.230 87.534, 65.597 86.604, 66.651 79.167 C 67.300 74.584, 68.035 70.632, 68.283 70.384 C 68.531 70.136, 69.053 72.760, 69.444 76.216 C 70.814 88.353, 70.613 88, 76.151 88 L 81.051 88 79.526 85.050 C 78.687 83.427, 78 81.666, 78 81.137 C 78 80.608, 82.044 76.902, 86.986 72.901 C 95.510 66.002, 95.888 65.533, 94.318 63.799 C 92.886 62.216, 92.820 61.290, 93.832 56.909 C 95.534 49.536, 95.632 49.691, 89.703 50.431 C 84.512 51.080, 84.378 51.032, 82.942 47.999 L 81.476 44.905 75.497 49.378 C 72.208 51.838, 69.390 53.723, 69.234 53.567 C 69.078 53.411, 69.910 48.918, 71.083 43.583 C 72.257 38.248, 72.985 33.651, 72.701 33.368 C 72.418 33.084, 70.752 33.594, 69 34.500 C 67.248 35.406, 65.677 36.002, 65.509 35.824 C 65.342 35.646, 63.562 32.688, 61.554 29.250 C 59.547 25.813, 57.723 23, 57.501 23 C 57.279 23, 55.462 25.925, 53.463 29.500 M 132.500 62.840 C 125.421 65.177, 125 66.702, 125 90.011 L 125 110.154 127.923 113.077 C 131.868 117.021, 138.846 117.245, 142.545 113.545 C 144.718 111.373, 145 110.223, 145 103.545 L 145 96 141.548 96 L 138.095 96 137.798 102.250 C 137.536 107.734, 137.255 108.500, 135.500 108.500 C 133.580 108.500, 133.489 107.742, 133.227 89.573 C 133.022 75.354, 133.263 70.456, 134.194 69.880 C 136.414 68.508, 138 71.110, 138 76.122 L 138 81 141.500 81 L 145 81 145 74.556 C 145 69.275, 144.594 67.664, 142.750 65.630 C 140.358 62.992, 135.799 61.751, 132.500 62.840 M 177.329 63.458 C 173.044 65.322, 172 67.680, 172 75.500 C 172 83.273, 172.665 84.781, 179.138 91.690 C 183.861 96.732, 184 97.056, 184 103.010 C 184 108.794, 183.873 109.121, 181.750 108.820 C 179.729 108.533, 179.470 107.864, 179.202 102.250 L 178.905 96 175.452 96 L 172 96 172 103.411 C 172 110.459, 172.151 110.949, 175.077 113.411 C 179.539 117.166, 185.162 116.992, 189.179 112.975 C 192.134 110.020, 192.195 109.760, 191.852 101.628 L 191.500 93.306 185.703 87.045 C 179.920 80.800, 179.907 80.772, 180.203 75.143 C 180.425 70.925, 180.879 69.500, 182 69.500 C 183.125 69.500, 183.575 70.939, 183.800 75.250 L 184.100 81 188.050 81 L 192 81 192 75.450 C 192 68.545, 190.020 64.551, 185.881 63.108 C 181.915 61.726, 181.248 61.753, 177.329 63.458 M 225.500 63.386 C 219.580 65.966, 219.500 66.319, 219.500 89.739 L 219.500 111.172 222.306 113.586 C 225.316 116.176, 229.787 116.720, 233.173 114.907 C 234.650 114.117, 235.517 114.117, 236.307 114.907 C 236.908 115.508, 237.985 116, 238.700 116 C 239.705 116, 240 112.821, 240 102 L 240 88 234.500 88 C 229.056 88, 229 88.030, 229 91 C 229 93.333, 229.444 94, 231 94 C 232.775 94, 233 94.667, 233 99.918 C 233 103.173, 232.727 106.548, 232.393 107.418 C 231.608 109.464, 228.392 109.464, 227.607 107.418 C 226.471 104.459, 226.929 71.471, 228.122 70.278 C 230.450 67.950, 232 70.079, 232 75.607 L 232 81 236 81 L 240 81 240 75.450 C 240 68.545, 238.020 64.551, 233.881 63.108 C 229.939 61.734, 229.236 61.758, 225.500 63.386 M 148.233 89.250 L 148.500 115.500 152.250 115.810 L 156 116.121 156 104.060 C 156 94.831, 156.305 92, 157.300 92 C 160.225 92, 161 94.492, 161.015 103.950 C 161.024 109.203, 161.408 114.096, 161.870 114.824 C 162.369 115.611, 164.043 116.017, 165.994 115.824 L 169.278 115.500 169.080 105.161 C 168.883 94.858, 168.094 90.794, 166.044 89.527 C 165.334 89.089, 165.656 87.982, 166.982 86.295 C 168.595 84.245, 169 82.238, 169 76.288 C 169 69.396, 168.784 68.630, 166.077 65.923 C 163.359 63.206, 162.620 63, 155.560 63 L 147.967 63 148.233 89.250 M 195 89.500 L 195 116 198.500 116 L 202 116 202.113 103.250 L 202.227 90.500 204.824 103.296 L 207.422 116.092 211.961 115.796 L 216.500 115.500 216.767 89.250 L 217.033 63 213.017 63 L 209 63 208.894 75.250 L 208.787 87.500 206.261 75.250 L 203.734 63 199.367 63 L 195 63 195 89.500 M 156 77.430 C 156 83.193, 156.329 85, 157.378 85 C 160.017 85, 161.108 82.239, 160.802 76.334 C 160.534 71.154, 160.248 70.464, 158.250 70.180 C 156.087 69.873, 156 70.153, 156 77.430" stroke="none" fill="#dc242c" fill-rule="evenodd"/></svg>