<?xml version="1.0" encoding="utf-8"?>
<svg viewBox="0 0 240 117" xmlns="http://www.w3.org/2000/svg">
  <path d="M 45.105 11.72 C 36.892 13.928 30.118 17.98 23.5 24.642 C 16.345 31.845 12.338 39.594 10.226 50.311 C 8.837 57.362 8.837 58.912 10.226 65.963 C 11.074 70.268 13.058 76.445 14.634 79.691 C 18.096 86.819 27.571 96.646 34.575 100.372 C 60.947 114.401 92.854 101.922 103.137 73.556 C 106.142 65.267 106.142 51.007 103.137 42.718 C 94.398 18.611 69.31 5.21 45.105 11.72 M 53.463 29.637 C 51.464 33.212 49.619 36.137 49.364 36.137 C 49.109 36.137 47.531 35.429 45.857 34.563 C 44.184 33.698 42.587 33.217 42.309 33.494 C 42.032 33.772 42.792 38.336 44 43.637 C 45.208 48.938 46.029 53.442 45.824 53.646 C 45.62 53.85 43.128 52.244 40.286 50.077 C 37.445 47.91 34.633 46.137 34.038 46.137 C 33.444 46.137 32.434 47.284 31.796 48.686 C 30.699 51.093 30.337 51.198 25.317 50.571 C 19.365 49.827 19.466 49.67 21.168 57.046 C 22.181 61.432 22.115 62.353 20.676 63.943 C 19.097 65.687 19.464 66.138 28.007 72.979 C 32.953 76.939 37 80.642 37 81.208 C 37 81.774 36.313 83.564 35.474 85.187 L 33.949 88.137 L 38.866 88.137 C 44.442 88.137 44.367 88.256 45.566 77.406 C 45.944 73.98 46.594 71.386 47.009 71.643 C 47.424 71.899 48.086 75.119 48.48 78.797 C 49.367 87.078 49.764 88.137 51.978 88.137 C 53.89 88.137 53.895 88.112 56.104 67.86 C 56.751 61.933 57.413 57.217 57.575 57.379 C 57.863 57.666 61 84.951 61 87.163 C 61 87.775 62.006 88.132 63.235 87.957 C 65.23 87.671 65.597 86.741 66.651 79.304 C 67.3 74.721 68.035 70.769 68.283 70.521 C 68.531 70.273 69.053 72.897 69.444 76.353 C 70.814 88.49 70.613 88.137 76.151 88.137 L 81.051 88.137 L 79.526 85.187 C 78.687 83.564 78 81.803 78 81.274 C 78 80.745 82.044 77.039 86.986 73.038 C 95.51 66.139 95.888 65.67 94.318 63.936 C 92.886 62.353 92.82 61.427 93.832 57.046 C 95.534 49.673 95.632 49.828 89.703 50.568 C 84.512 51.217 84.378 51.169 82.942 48.136 L 81.476 45.042 L 75.497 49.515 C 72.208 51.975 69.39 53.86 69.234 53.704 C 69.078 53.548 69.91 49.055 71.083 43.72 C 72.257 38.385 72.985 33.788 72.701 33.505 C 72.418 33.221 70.752 33.731 69 34.637 C 67.248 35.543 65.677 36.139 65.509 35.961 C 65.342 35.783 63.562 32.825 61.554 29.387 C 59.547 25.95 57.723 23.137 57.501 23.137 C 57.279 23.137 55.462 26.062 53.463 29.637" stroke="none" fill="#fbf8f8" fill-rule="evenodd"/>
  <path d="M 0 58.137 L 0 116.137 L 57.5 116.137 L 115 116.137 L 115 58.137 L 115 0.137 L 57.5 0.137 L 0 0.137 L 0 58.137 M 125 26.637 L 125 53.137 L 128.5 53.137 L 132 53.137 L 132.105 39.887 L 132.21 26.637 L 134.886 39.637 L 137.561 52.637 L 142.281 52.942 L 147 53.247 L 147 26.631 L 147 0.016 L 143.25 0.327 L 139.5 0.637 L 139 12.137 L 138.5 23.637 L 137.182 16.637 C 136.458 12.787 135.408 7.499 134.85 4.887 L 133.834 0.137 L 129.417 0.137 L 125 0.137 L 125 26.637 M 152.923 3.06 C 150.33 5.653 150 6.673 150 12.092 C 150 19.546 151.615 23.554 156.466 28.137 C 158.504 30.062 160.807 32.852 161.585 34.337 C 164.779 40.433 161.937 50.506 158.392 45.658 C 157.626 44.611 157 41.591 157 38.946 L 157 34.137 L 153.5 34.137 L 150 34.137 L 150 40.187 C 150 48.092 151.901 51.727 156.804 53.196 C 170.602 57.33 176.613 36.915 164.93 25.602 C 162.678 23.421 160.197 20.422 159.418 18.937 C 157.439 15.169 157.55 8.247 159.601 7.46 C 161.857 6.594 162.967 8.867 162.985 14.387 L 163 19.137 L 166.5 19.137 L 170 19.137 L 170 13.184 C 170 3.501 167.261 0.137 159.376 0.137 C 156.808 0.137 155.05 0.933 152.923 3.06 M 173.667 0.804 C 173.3 1.17 173 13.095 173 27.304 L 173 53.137 L 183 53.137 L 193 53.137 L 193 49.637 L 193 46.137 L 187 46.137 L 181 46.137 L 181 37.637 L 181 29.137 L 185.063 29.137 C 189.045 29.137 189.12 29.072 188.813 25.887 C 188.527 22.92 188.174 22.61 184.75 22.327 L 181 22.016 L 181 14.577 L 181 7.137 L 186.5 7.137 L 192 7.137 L 192 3.637 L 192 0.137 L 183.167 0.137 C 178.308 0.137 174.033 0.437 173.667 0.804 M 196 26.637 L 196 53.137 L 200 53.137 L 204 53.137 L 204 41.137 C 204 34.537 204.36 29.137 204.8 29.137 C 207.181 29.137 208 32.112 208 40.755 C 208 52.417 208.284 53.137 212.882 53.137 L 216.551 53.137 L 216.184 42.387 C 215.966 35.992 215.256 30.478 214.43 28.776 C 213.234 26.31 213.246 25.623 214.521 23.803 C 216.582 20.861 216.547 7.363 214.471 4.398 C 212.655 1.806 207.316 0.15 200.75 0.143 L 196 0.137 L 196 26.637 M 222.766 3.055 L 219.5 5.973 L 219.5 26.482 C 219.5 45.633 219.636 47.173 221.561 49.751 C 224.365 53.507 228.257 54.676 233.113 53.221 C 238.105 51.726 240 48.14 240 40.187 L 240 34.137 L 236.5 34.137 L 233 34.137 L 233 38.946 C 233 41.691 232.356 44.588 231.5 45.696 C 230.015 47.617 229.985 47.617 228.5 45.696 C 227.304 44.148 227 40.367 227 27.028 C 227 17.828 227.273 9.589 227.607 8.719 C 228.392 6.673 231.608 6.673 232.393 8.719 C 232.727 9.589 233 12.289 233 14.719 C 233 19.102 233.028 19.137 236.5 19.137 L 240 19.137 L 240 12.56 C 240 6.624 239.715 5.698 237.077 3.06 C 232.999 -1.018 227.326 -1.02 222.766 3.055 M 204 14.637 C 204 20.557 204.309 22.137 205.465 22.137 C 210.455 22.137 209.745 7.254 204.75 7.152 C 204.338 7.144 204 10.512 204 14.637 M 45.105 11.72 C 36.892 13.928 30.118 17.98 23.5 24.642 C 16.345 31.845 12.338 39.594 10.226 50.311 C 8.837 57.362 8.837 58.912 10.226 65.963 C 11.074 70.268 13.058 76.445 14.634 79.691 C 18.096 86.819 27.571 96.646 34.575 100.372 C 60.947 114.401 92.854 101.922 103.137 73.556 C 106.142 65.267 106.142 51.007 103.137 42.718 C 94.398 18.611 69.31 5.21 45.105 11.72 M 53.463 29.637 C 51.464 33.212 49.619 36.137 49.364 36.137 C 49.109 36.137 47.531 35.429 45.857 34.563 C 44.184 33.698 42.587 33.217 42.309 33.494 C 42.032 33.772 42.792 38.336 44 43.637 C 45.208 48.938 46.029 53.442 45.824 53.646 C 45.62 53.85 43.128 52.244 40.286 50.077 C 37.445 47.91 34.633 46.137 34.038 46.137 C 33.444 46.137 32.434 47.284 31.796 48.686 C 30.699 51.093 30.337 51.198 25.317 50.571 C 19.365 49.827 19.466 49.67 21.168 57.046 C 22.181 61.432 22.115 62.353 20.676 63.943 C 19.097 65.687 19.464 66.138 28.007 72.979 C 32.953 76.939 37 80.642 37 81.208 C 37 81.774 36.313 83.564 35.474 85.187 L 33.949 88.137 L 38.866 88.137 C 44.442 88.137 44.367 88.256 45.566 77.406 C 45.944 73.98 46.594 71.386 47.009 71.643 C 47.424 71.899 48.086 75.119 48.48 78.797 C 49.367 87.078 49.764 88.137 51.978 88.137 C 53.89 88.137 53.895 88.112 56.104 67.86 C 56.751 61.933 57.413 57.217 57.575 57.379 C 57.863 57.666 61 84.951 61 87.163 C 61 87.775 62.006 88.132 63.235 87.957 C 65.23 87.671 65.597 86.741 66.651 79.304 C 67.3 74.721 68.035 70.769 68.283 70.521 C 68.531 70.273 69.053 72.897 69.444 76.353 C 70.814 88.49 70.613 88.137 76.151 88.137 L 81.051 88.137 L 79.526 85.187 C 78.687 83.564 78 81.803 78 81.274 C 78 80.745 82.044 77.039 86.986 73.038 C 95.51 66.139 95.888 65.67 94.318 63.936 C 92.886 62.353 92.82 61.427 93.832 57.046 C 95.534 49.673 95.632 49.828 89.703 50.568 C 84.512 51.217 84.378 51.169 82.942 48.136 L 81.476 45.042 L 75.497 49.515 C 72.208 51.975 69.39 53.86 69.234 53.704 C 69.078 53.548 69.91 49.055 71.083 43.72 C 72.257 38.385 72.985 33.788 72.701 33.505 C 72.418 33.221 70.752 33.731 69 34.637 C 67.248 35.543 65.677 36.139 65.509 35.961 C 65.342 35.783 63.562 32.825 61.554 29.387 C 59.547 25.95 57.723 23.137 57.501 23.137 C 57.279 23.137 55.462 26.062 53.463 29.637 M 132.5 62.977 C 125.421 65.314 125 66.839 125 90.148 L 125 110.291 L 127.923 113.214 C 131.868 117.158 138.846 117.382 142.545 113.682 C 144.718 111.51 145 110.36 145 103.682 L 145 96.137 L 141.548 96.137 L 138.095 96.137 L 137.798 102.387 C 137.536 107.871 137.255 108.637 135.5 108.637 C 133.58 108.637 133.489 107.879 133.227 89.71 C 133.022 75.491 133.263 70.593 134.194 70.017 C 136.414 68.645 138 71.247 138 76.259 L 138 81.137 L 141.5 81.137 L 145 81.137 L 145 74.693 C 145 69.412 144.594 67.801 142.75 65.767 C 140.358 63.129 135.799 61.888 132.5 62.977 M 177.329 63.595 C 173.044 65.459 172 67.817 172 75.637 C 172 83.41 172.665 84.918 179.138 91.827 C 183.861 96.869 184 97.193 184 103.147 C 184 108.931 183.873 109.258 181.75 108.957 C 179.729 108.67 179.47 108.001 179.202 102.387 L 178.905 96.137 L 175.452 96.137 L 172 96.137 L 172 103.548 C 172 110.596 172.151 111.086 175.077 113.548 C 179.539 117.303 185.162 117.129 189.179 113.112 C 192.134 110.157 192.195 109.897 191.852 101.765 L 191.5 93.443 L 185.703 87.182 C 179.92 80.937 179.907 80.909 180.203 75.28 C 180.425 71.062 180.879 69.637 182 69.637 C 183.125 69.637 183.575 71.076 183.8 75.387 L 184.1 81.137 L 188.05 81.137 L 192 81.137 L 192 75.587 C 192 68.682 190.02 64.688 185.881 63.245 C 181.915 61.863 181.248 61.89 177.329 63.595 M 225.5 63.523 C 219.58 66.103 219.5 66.456 219.5 89.876 L 219.5 111.309 L 222.306 113.723 C 225.316 116.313 229.787 116.857 233.173 115.044 C 234.65 114.254 235.517 114.254 236.307 115.044 C 236.908 115.645 237.985 116.137 238.7 116.137 C 239.705 116.137 240 112.958 240 102.137 L 240 88.137 L 234.5 88.137 C 229.056 88.137 229 88.167 229 91.137 C 229 93.47 229.444 94.137 231 94.137 C 232.775 94.137 233 94.804 233 100.055 C 233 103.31 232.727 106.685 232.393 107.555 C 231.608 109.601 228.392 109.601 227.607 107.555 C 226.471 104.596 226.929 71.608 228.122 70.415 C 230.45 68.087 232 70.216 232 75.744 L 232 81.137 L 236 81.137 L 240 81.137 L 240 75.587 C 240 68.682 238.02 64.688 233.881 63.245 C 229.939 61.871 229.236 61.895 225.5 63.523 M 148.233 89.387 L 148.5 115.637 L 152.25 115.947 L 156 116.258 L 156 104.197 C 156 94.968 156.305 92.137 157.3 92.137 C 160.225 92.137 161 94.629 161.015 104.087 C 161.024 109.34 161.408 114.233 161.87 114.961 C 162.369 115.748 164.043 116.154 165.994 115.961 L 169.278 115.637 L 169.08 105.298 C 168.883 94.995 168.094 90.931 166.044 89.664 C 165.334 89.226 165.656 88.119 166.982 86.432 C 168.595 84.382 169 82.375 169 76.425 C 169 69.533 168.784 68.767 166.077 66.06 C 163.359 63.343 162.62 63.137 155.56 63.137 L 147.967 63.137 L 148.233 89.387 M 195 89.637 L 195 116.137 L 198.5 116.137 L 202 116.137 L 202.113 103.387 L 202.227 90.637 L 204.824 103.433 L 207.422 116.229 L 211.961 115.933 L 216.5 115.637 L 216.767 89.387 L 217.033 63.137 L 213.017 63.137 L 209 63.137 L 208.894 75.387 L 208.787 87.637 L 206.261 75.387 L 203.734 63.137 L 199.367 63.137 L 195 63.137 L 195 89.637 M 156 77.567 C 156 83.33 156.329 85.137 157.378 85.137 C 160.017 85.137 161.108 82.376 160.802 76.471 C 160.534 71.291 160.248 70.601 158.25 70.317 C 156.087 70.01 156 70.29 156 77.567" stroke="none" fill="#dc242c" fill-rule="evenodd"/>
</svg>