<?xml version="1.0" encoding="UTF-8"?>
<svg xmlns="http://www.w3.org/2000/svg" xmlns:xlink="http://www.w3.org/1999/xlink" width="1000px" height="1000px" viewBox="0 0 750 750" version="1.1" preserveAspectRatio="xMinYMin meet">
<g id="surface1">
<path style=" stroke:none;fill-rule:nonzero;fill:rgb(99.607843%,99.607843%,99.607843%);fill-opacity:1;" d="M 0 0 C 247.5 0 495 0 750 0 C 750 247.5 750 495 750 750 C 502.5 750 255 750 0 750 C 0 502.5 0 255 0 0 Z M 0 0 "/>
<path style=" stroke:none;fill-rule:nonzero;fill:rgb(41.176471%,58.823532%,77.64706%);fill-opacity:1;" d="M 423 120 C 423.871094 120.171875 423.871094 120.171875 424.757812 120.34375 C 464.4375 128.1875 502.078125 145.753906 532.5 172.5 C 533.03125 172.957031 533.566406 173.417969 534.113281 173.890625 C 535.589844 175.160156 537.046875 176.453125 538.5 177.75 C 539.21875 178.390625 539.9375 179.03125 540.679688 179.691406 C 544.472656 183.101562 548.148438 186.527344 551.429688 190.445312 C 553.015625 192.3125 554.6875 194.09375 556.359375 195.890625 C 560.453125 200.375 564.117188 205.140625 567.75 210 C 568.191406 210.589844 568.632812 211.175781 569.089844 211.785156 C 569.390625 212.183594 569.691406 212.585938 570 213 C 569.753906 213.496094 569.503906 213.988281 569.25 214.5 C 568.707031 213.941406 568.167969 213.386719 567.609375 212.8125 C 557.25 204.449219 539.53125 206.519531 527.199219 207.773438 C 520.667969 208.507812 514.199219 209.488281 507.75 210.75 C 506.808594 210.929688 505.867188 211.113281 504.898438 211.296875 C 477.335938 217.203125 451.058594 228.882812 426 241.5 C 425.195312 241.902344 424.390625 242.304688 423.5625 242.71875 C 380.5625 264.265625 339.683594 292.507812 304.296875 325.136719 C 302.707031 326.585938 301.09375 328 299.464844 329.40625 C 296.449219 332.042969 293.589844 334.800781 290.761719 337.636719 C 290.019531 338.378906 290.019531 338.378906 289.261719 339.136719 C 288.226562 340.171875 287.1875 341.210938 286.152344 342.25 C 284.582031 343.824219 283.007812 345.394531 281.433594 346.964844 C 280.417969 347.980469 279.402344 348.996094 278.386719 350.011719 C 277.925781 350.472656 277.460938 350.933594 276.984375 351.410156 C 265.992188 362.464844 256.34375 374.941406 247.5 387.75 C 246.960938 388.53125 246.960938 388.53125 246.40625 389.332031 C 233.75 407.835938 222.179688 429.15625 224.25 452.25 C 225.730469 460.148438 229.644531 466.894531 236.15625 471.65625 C 246.257812 478.125 256.792969 479.6875 268.640625 479.578125 C 269.195312 479.574219 269.753906 479.570312 270.324219 479.570312 C 296.753906 479.367188 322.1875 471.597656 346.640625 462 C 347.523438 461.652344 348.40625 461.308594 349.320312 460.953125 C 357.042969 457.875 364.582031 454.445312 372.085938 450.863281 C 372.914062 450.46875 373.746094 450.074219 374.601562 449.667969 C 375.332031 449.3125 376.0625 448.960938 376.816406 448.597656 C 378.472656 447.871094 379.984375 447.363281 381.75 447 C 379.925781 449.023438 377.949219 450.261719 375.59375 451.613281 C 374.808594 452.066406 374.019531 452.523438 373.210938 452.988281 C 371.9375 453.714844 371.9375 453.714844 370.640625 454.453125 C 369.746094 454.964844 368.855469 455.472656 367.960938 455.984375 C 365.3125 457.496094 362.65625 459 360 460.5 C 359.316406 460.886719 358.632812 461.277344 357.925781 461.675781 C 317.898438 484.292969 275.332031 502.609375 230.25 512.25 C 229.628906 512.386719 229.007812 512.519531 228.367188 512.660156 C 218.871094 514.636719 209.300781 514.746094 199.640625 514.828125 C 199.019531 514.835938 198.394531 514.847656 197.753906 514.855469 C 183.667969 515.03125 169.667969 512.703125 158.8125 502.921875 C 158.296875 502.414062 157.785156 501.902344 157.253906 501.378906 C 156.09375 500.082031 156.09375 500.082031 154.5 500.25 C 153.445312 498.753906 152.515625 497.277344 151.59375 495.703125 C 151.15625 494.964844 151.15625 494.964844 150.710938 494.214844 C 146.804688 487.507812 143.277344 480.59375 139.746094 473.683594 C 138.921875 472.082031 138.082031 470.496094 137.21875 468.917969 C 133.316406 461.558594 130.753906 453.785156 128.132812 445.898438 C 127.621094 444.363281 127.09375 442.839844 126.558594 441.3125 C 122.160156 428.699219 120.148438 415.699219 118.175781 402.535156 C 117.910156 400.789062 117.625 399.042969 117.3125 397.304688 C 115.886719 388.839844 115.988281 380.375 116.015625 371.8125 C 116.015625 371.015625 116.015625 370.214844 116.019531 369.394531 C 116.050781 353.726562 116.988281 338.515625 120.75 323.25 C 120.980469 322.214844 121.207031 321.179688 121.4375 320.140625 C 125.117188 303.503906 129.820312 287.789062 136.960938 272.289062 C 137.75 270.550781 138.519531 268.808594 139.269531 267.054688 C 139.496094 266.53125 139.71875 266.011719 139.949219 265.476562 C 140.382812 264.464844 140.816406 263.453125 141.246094 262.441406 C 142.914062 258.5625 144.898438 254.910156 147 251.25 C 147.527344 250.320312 147.527344 250.320312 148.066406 249.375 C 155.742188 235.984375 164.21875 223.4375 174 211.5 C 174.339844 211.082031 174.679688 210.664062 175.03125 210.234375 C 180.476562 203.582031 186.414062 197.433594 192.46875 191.34375 C 192.828125 190.980469 193.191406 190.613281 193.5625 190.238281 C 198.53125 185.226562 203.734375 180.652344 209.25 176.25 C 210.609375 175.082031 211.972656 173.910156 213.328125 172.734375 C 244.460938 146.824219 284.230469 128.339844 324 120.75 C 325.050781 120.539062 326.101562 120.324219 327.152344 120.109375 C 336.761719 118.234375 346.519531 117.257812 356.25 116.25 C 357.222656 116.148438 358.195312 116.046875 359.199219 115.941406 C 380.441406 114.097656 402.152344 115.761719 423 120 Z M 423 120 "/>
<path style=" stroke:none;fill-rule:nonzero;fill:rgb(73.725492%,28.627452%,32.941177%);fill-opacity:1;" d="M 590.25 246 C 591.554688 247.351562 592.722656 248.699219 593.835938 250.210938 C 594.792969 251.472656 594.792969 251.472656 597 252 C 598.078125 253.441406 598.078125 253.441406 599.199219 255.351562 C 599.621094 256.066406 600.039062 256.777344 600.472656 257.511719 C 600.921875 258.292969 601.367188 259.070312 601.828125 259.875 C 602.292969 260.683594 602.757812 261.488281 603.238281 262.320312 C 616.089844 284.945312 625.132812 308.664062 630.1875 334.171875 C 630.371094 335.09375 630.558594 336.015625 630.746094 336.964844 C 633.238281 350.070312 634 363.074219 633.945312 376.398438 C 633.9375 378.699219 633.945312 381 633.953125 383.300781 C 633.964844 396.417969 633.113281 409.394531 630.65625 422.296875 C 630.496094 423.136719 630.339844 423.976562 630.175781 424.839844 C 621.46875 468.863281 601.132812 510.128906 571.5 543.75 C 571.019531 544.296875 570.535156 544.84375 570.039062 545.410156 C 565.710938 550.277344 561.199219 554.9375 556.59375 559.546875 C 555.90625 560.242188 555.21875 560.941406 554.511719 561.65625 C 549.90625 566.269531 545.097656 570.445312 540 574.5 C 539.121094 575.230469 538.242188 575.96875 537.367188 576.707031 C 522.273438 589.25 505.214844 599.835938 487.5 608.25 C 486.960938 608.507812 486.425781 608.765625 485.871094 609.035156 C 464.507812 619.261719 442.4375 626.246094 419.109375 630.1875 C 418.554688 630.28125 418.003906 630.375 417.433594 630.472656 C 403.367188 632.832031 389.449219 634.039062 375.1875 633.984375 C 374.148438 633.984375 374.148438 633.984375 373.09375 633.980469 C 352.027344 633.929688 331.578125 632 311.25 626.25 C 310.414062 626.019531 309.574219 625.789062 308.710938 625.550781 C 288.195312 619.8125 288.195312 619.8125 280.117188 615.890625 C 278.210938 614.980469 276.28125 614.21875 274.3125 613.453125 C 256.792969 606.183594 240.621094 595.945312 225.75 584.25 C 225.003906 583.664062 224.257812 583.078125 223.488281 582.476562 C 210.675781 572.1875 198.304688 560.511719 188.25 547.5 C 187.460938 546.523438 186.671875 545.550781 185.875 544.578125 C 185.042969 543.554688 184.207031 542.527344 183.375 541.5 C 182.777344 540.769531 182.777344 540.769531 182.171875 540.027344 C 180.566406 538.035156 179.316406 536.449219 178.5 534 C 178.996094 534 179.488281 534 180 534 C 180.542969 534.695312 181.082031 535.390625 181.640625 536.109375 C 183.695312 538.648438 185.890625 539.824219 189 540.75 C 189.730469 540.96875 189.730469 540.96875 190.476562 541.1875 C 213.378906 546.753906 239.859375 541.234375 261.75 534 C 262.585938 533.726562 263.425781 533.453125 264.289062 533.175781 C 293.097656 523.75 320.789062 511.347656 346.960938 496.039062 C 349.074219 494.8125 351.214844 493.632812 353.363281 492.460938 C 380.191406 477.714844 405.535156 459.113281 429 439.5 C 429.386719 439.179688 429.769531 438.855469 430.167969 438.527344 C 434.980469 434.503906 439.730469 430.425781 444.367188 426.199219 C 445.929688 424.789062 447.503906 423.40625 449.09375 422.023438 C 458.238281 414.03125 466.832031 405.550781 475.027344 396.589844 C 476.136719 395.371094 477.257812 394.160156 478.378906 392.953125 C 500.507812 368.949219 527.023438 335.308594 525.960938 300.882812 C 525.527344 292.8125 522.128906 285.433594 516.1875 279.890625 C 505.898438 271.648438 493.144531 270.195312 480.421875 270.375 C 479.835938 270.378906 479.25 270.382812 478.644531 270.390625 C 441.171875 270.734375 402.953125 285.183594 370.277344 302.835938 C 369.273438 303.289062 369.273438 303.289062 368.25 303.75 C 367.753906 303.503906 367.261719 303.253906 366.75 303 C 369.46875 301.386719 372.1875 299.773438 374.90625 298.160156 C 375.828125 297.617188 376.75 297.070312 377.667969 296.523438 C 380.777344 294.679688 383.886719 292.835938 387 291 C 387.824219 290.511719 388.652344 290.023438 389.503906 289.519531 C 393.261719 287.3125 397 285.164062 400.921875 283.265625 C 403.824219 281.847656 406.703125 280.40625 409.542969 278.871094 C 438.109375 263.457031 468.828125 250.457031 500.25 242.25 C 500.980469 242.054688 501.710938 241.863281 502.464844 241.660156 C 513.902344 238.648438 525.230469 236.644531 537 235.5 C 538.089844 235.394531 538.089844 235.394531 539.199219 235.285156 C 556.253906 233.679688 576.308594 234.863281 590.25 246 Z M 590.25 246 "/>
<path style=" stroke:none;fill-rule:nonzero;fill:rgb(80.784315%,48.627451%,48.627451%);fill-opacity:1;" d="M 381.75 294 C 383.25 294.75 383.25 294.75 384 296.25 C 381.410156 297.523438 378.816406 298.789062 376.21875 300.046875 C 375.480469 300.410156 374.742188 300.773438 373.980469 301.148438 C 373.273438 301.492188 372.570312 301.832031 371.84375 302.183594 C 371.191406 302.5 370.539062 302.820312 369.867188 303.148438 C 369.066406 303.445312 369.066406 303.445312 368.25 303.75 C 367.753906 303.503906 367.261719 303.253906 366.75 303 C 369.210938 301.476562 371.683594 299.960938 374.15625 298.453125 C 374.859375 298.019531 375.5625 297.582031 376.285156 297.132812 C 376.957031 296.726562 377.628906 296.316406 378.320312 295.894531 C 378.941406 295.515625 379.5625 295.132812 380.203125 294.742188 C 380.96875 294.375 380.96875 294.375 381.75 294 Z M 381.75 294 "/>
<path style=" stroke:none;fill-rule:nonzero;fill:rgb(49.411765%,64.313728%,80.392158%);fill-opacity:1;" d="M 380.25 447 C 380.746094 447.246094 381.238281 447.496094 381.75 447.75 C 378.039062 449.976562 374.324219 452.203125 370.5 454.5 C 370.003906 453.757812 369.511719 453.015625 369 452.25 C 370.839844 451.351562 372.683594 450.460938 374.53125 449.578125 C 375.316406 449.191406 375.316406 449.191406 376.117188 448.800781 C 377.476562 448.15625 378.863281 447.574219 380.25 447 Z M 380.25 447 "/>
<path style=" stroke:none;fill-rule:nonzero;fill:rgb(82.352942%,52.549022%,51.764709%);fill-opacity:1;" d="M 178.5 534 C 178.996094 534 179.488281 534 180 534 C 180.929688 535.125 181.859375 536.253906 182.769531 537.398438 C 183.941406 538.714844 185.101562 539.390625 186.75 540 C 186.75 540.496094 186.75 540.988281 186.75 541.5 C 182.769531 540.667969 181.308594 539.164062 179.164062 535.917969 C 178.5 534.75 178.5 534.75 178.5 534 Z M 178.5 534 "/>
<path style=" stroke:none;fill-rule:nonzero;fill:rgb(69.411767%,11.764706%,26.666668%);fill-opacity:1;" d="M 596.25 252.75 C 598 254.441406 599.390625 255.960938 600.75 258 C 600.46875 259.640625 600.46875 259.640625 600 261 C 596.25 255.375 596.25 255.375 596.25 252.75 Z M 596.25 252.75 "/>
</g>
</svg>
