<svg xmlns="http://www.w3.org/2000/svg" version="1.1" xmlns:xlink="http://www.w3.org/1999/xlink" xmlns:svgjs="http://svgjs.dev/svgjs" width="1440" height="560" preserveAspectRatio="none" viewBox="0 0 1440 560"><g mask="url(&quot;#SvgjsMask1010&quot;)" fill="none"><path d="M563.5182696876726 160.87602446118848L416.4924348346049 129.62471852815594 385.2411289015724 276.65055338122363 532.2669637546401 307.90185931425617z" fill="rgba(28, 83, 142, 0.4)" class="triangle-float2"></path><path d="M1234.8283805158837 211.79024816737027L1244.0078886483552 80.51716596412211 1112.734806445107 71.33765783165066 1103.5552983126356 202.6107400348988z" fill="rgba(28, 83, 142, 0.4)" class="triangle-float1"></path><path d="M1119.9808034327066 17.12113016851083L1211.2173590810178 78.6609640006647 1272.7571929131718-12.57559164764659 1181.5206372648604-74.11542547980046z" fill="rgba(28, 83, 142, 0.4)" class="triangle-float2"></path><path d="M895.98252244126 238.68032709124486L936.8083952450812 86.31609552403944 784.4441636778758 45.49022272021824 743.6182908740545 197.85445428742366z" fill="rgba(28, 83, 142, 0.4)" class="triangle-float2"></path><path d="M-24.910034699052837 40.05708537962027L-13.369304914577643 134.0487867760303 80.6223964818324 122.50805699155512 69.0816666973572 28.516355595145075z" fill="rgba(28, 83, 142, 0.4)" class="triangle-float1"></path><path d="M1023.3780400242293 40.78776728985008L1096.0270358094815 127.36746901528595 1182.6067375349173 54.71847323003374 1109.9577417496653-31.86122849540213z" fill="rgba(28, 83, 142, 0.4)" class="triangle-float1"></path><path d="M1421.2016787875998 392.5188489821394L1481.9296161523564 308.93401392578266 1398.3447810959997 248.20607656102612 1337.616843731243 331.79091161738285z" fill="rgba(28, 83, 142, 0.4)" class="triangle-float2"></path><path d="M1004.6183698143693 370.5848546648183L950.2569054383285 263.8944735857567 843.566524359267 318.2559379617975 897.9279887353077 424.94631904085907z" fill="rgba(28, 83, 142, 0.4)" class="triangle-float2"></path><path d="M806.44,406.519C848.266,404.394,883.231,376.756,902.762,339.709C920.962,305.187,917.107,265.217,899.221,230.531C879.414,192.121,849.631,154.375,806.44,152.919C761.399,151.401,724.815,184.933,702.153,223.888C679.338,263.106,669.032,311.04,691.531,350.441C714.183,390.11,760.818,408.837,806.44,406.519" fill="rgba(28, 83, 142, 0.4)" class="triangle-float1"></path><path d="M1329.3572260452172 429.52774886716435L1390.9050929817884 555.7195768882278 1517.096921002852 494.1717099516566 1455.5490540662806 367.97988193059314z" fill="rgba(28, 83, 142, 0.4)" class="triangle-float3"></path><path d="M324.75,437.351C369.959,439.097,420.189,431.066,442.983,391.985C465.892,352.707,449.691,304.003,424.671,266.034C402.393,232.226,365.204,214.218,324.75,212.563C280.658,210.76,232.44,219.483,209.592,257.237C186.149,295.973,196.958,345.276,221.347,383.423C243.791,418.526,283.116,435.743,324.75,437.351" fill="rgba(28, 83, 142, 0.4)" class="triangle-float3"></path></g><defs><mask id="SvgjsMask1010"><rect width="1440" height="560" fill="#ffffff"></rect></mask><style>
                @keyframes float1 {
                    0%{transform: translate(0, 0)}
                    50%{transform: translate(-10px, 0)}
                    100%{transform: translate(0, 0)}
                }

                .triangle-float1 {
                    animation: float1 5s infinite;
                }

                @keyframes float2 {
                    0%{transform: translate(0, 0)}
                    50%{transform: translate(-5px, -5px)}
                    100%{transform: translate(0, 0)}
                }

                .triangle-float2 {
                    animation: float2 4s infinite;
                }

                @keyframes float3 {
                    0%{transform: translate(0, 0)}
                    50%{transform: translate(0, -10px)}
                    100%{transform: translate(0, 0)}
                }

                .triangle-float3 {
                    animation: float3 6s infinite;
                }
            </style></defs></svg>