<svg xmlns="http://www.w3.org/2000/svg" version="1.1" xmlns:xlink="http://www.w3.org/1999/xlink" xmlns:svgjs="http://svgjs.dev/svgjs" width="1440" height="560" preserveAspectRatio="none" viewBox="0 0 1440 560"><g mask="url(&quot;#SvgjsMask1354&quot;)" fill="none"><path d="M495.255,167.13C508.09,167.051,519.406,160.049,526.457,149.324C534.407,137.233,539.977,122.185,533.219,109.39C526.125,95.958,510.418,89.344,495.255,90.25C481.48,91.073,470.93,101.337,464.41,113.5C458.296,124.907,456.928,138.493,463.38,149.712C469.85,160.961,482.278,167.21,495.255,167.13" fill="rgba(28, 83, 142, 0.4)" class="triangle-float3"></path><path d="M133.434,507.539C169.114,507.047,205.774,497.651,224.965,467.568C245.522,435.344,245.276,394.265,227.168,360.604C208.035,325.038,173.813,298.171,133.434,297.42C91.862,296.647,53.661,320.66,33.46,357.002C13.807,392.358,15.04,436.459,37.419,470.156C57.784,500.821,96.627,508.047,133.434,507.539" fill="rgba(28, 83, 142, 0.4)" class="triangle-float1"></path><path d="M384.30728861838793 353.12773424282904L401.0489392431885 459.48628585198276 475.215622283051 401.5409224272586z" fill="rgba(28, 83, 142, 0.4)" class="triangle-float2"></path><path d="M299.227,225.042C315.732,225.472,334.634,225.705,343.496,211.774C352.773,197.19,346.823,178.693,338.259,163.68C329.597,148.494,316.708,134.398,299.227,134.165C281.436,133.927,266.757,146.933,258.346,162.613C250.416,177.397,249.592,195.531,258.782,209.566C267.257,222.509,283.761,224.639,299.227,225.042" fill="rgba(28, 83, 142, 0.4)" class="triangle-float2"></path><path d="M990.421233615941 139.91214736140412L887.3941737585025 148.9258471353368 896.4078735324351 251.9529069927753 999.4349333898737 242.93920721884263z" fill="rgba(28, 83, 142, 0.4)" class="triangle-float2"></path><path d="M130.34713519703325 180.63789374399641L149.62712737851606 89.93266201648305 3.929283696504598 106.36528960801553z" fill="rgba(28, 83, 142, 0.4)" class="triangle-float1"></path><path d="M336.21,711.203C390.214,714.888,434.816,672.517,460.851,625.06C485.814,579.557,489.041,524.791,463.156,479.806C437.208,434.71,388.234,409.11,336.21,408.444C282.935,407.762,226.871,428.599,203.503,476.48C181.92,520.703,213.694,567.012,237.913,609.849C262.739,653.759,285.885,707.769,336.21,711.203" fill="rgba(28, 83, 142, 0.4)" class="triangle-float3"></path><path d="M865.192,549.123C886.316,548.5,906.512,539.539,917.489,521.48C928.9,502.707,929.482,479.511,919.354,460.016C908.342,438.82,889.062,421.691,865.192,420.819C839.939,419.896,816.014,433.717,803.709,455.789C791.7,477.332,793.695,504.135,807.263,524.732C819.616,543.485,842.746,549.785,865.192,549.123" fill="rgba(28, 83, 142, 0.4)" class="triangle-float2"></path><path d="M331.436,207.86C375.461,209.51,411.897,175.372,431.642,135.989C449.422,100.526,444.108,58.859,422.972,25.287C403.258,-6.027,368.439,-23.093,331.436,-23.179C294.27,-23.265,257.775,-7.309,239.165,24.862C220.531,57.075,226.689,95.708,243.444,128.937C262.457,166.644,289.237,206.279,331.436,207.86" fill="rgba(28, 83, 142, 0.4)" class="triangle-float1"></path><path d="M187.219,150.218C203.523,151.174,222.112,147.72,229.662,133.238C236.913,119.33,226.104,104.393,218.161,90.868C210.376,77.612,202.569,61.808,187.219,60.968C170.931,60.077,157.22,72.602,149.798,87.128C143.022,100.39,145.005,115.909,152.603,128.718C160.03,141.239,172.686,149.366,187.219,150.218" fill="rgba(28, 83, 142, 0.4)" class="triangle-float3"></path><path d="M-57.32035598703493 431.0505750237542L100.10812887174816 482.2021905024767 151.2597443504706 324.7737056436936-6.1687405083124744 273.62209016497115z" fill="rgba(28, 83, 142, 0.4)" class="triangle-float3"></path></g><defs><mask id="SvgjsMask1354"><rect width="1440" height="560" fill="#ffffff"></rect></mask><style>
                @keyframes float1 {
                    0%{transform: translate(0, 0)}
                    50%{transform: translate(-10px, 0)}
                    100%{transform: translate(0, 0)}
                }

                .triangle-float1 {
                    animation: float1 5s infinite;
                }

                @keyframes float2 {
                    0%{transform: translate(0, 0)}
                    50%{transform: translate(-5px, -5px)}
                    100%{transform: translate(0, 0)}
                }

                .triangle-float2 {
                    animation: float2 4s infinite;
                }

                @keyframes float3 {
                    0%{transform: translate(0, 0)}
                    50%{transform: translate(0, -10px)}
                    100%{transform: translate(0, 0)}
                }

                .triangle-float3 {
                    animation: float3 6s infinite;
                }
            </style></defs></svg>